<svg width="334" height="336" viewBox="0 0 334 336" fill="none" xmlns="http://www.w3.org/2000/svg">
<path opacity="0.05" fill-rule="evenodd" clip-rule="evenodd" d="M157.782 19.006C154.318 21.1134 150.616 22.8005 146.753 24.0318C155.342 24.8848 163.477 28.2949 170.106 33.8209C173.676 36.7947 176.592 39.9099 178.937 42.4157C180.811 44.4176 182.321 46.0304 183.508 46.8711C185.199 48.2491 187.153 49.2665 189.252 49.861C191.35 50.4554 193.548 50.6143 195.71 50.3278C199.916 49.285 203.941 47.6132 207.649 45.369C208.786 44.6976 209.919 44.0139 211.039 43.3374C218.082 39.0853 224.65 35.1199 228.986 36.3002C226.51 33.8533 224.731 30.7904 223.832 27.4269C222.07 22.9482 220.018 18.5889 217.689 14.3767C216.34 12.0532 214.767 9.86685 212.993 7.84873C211.061 5.89673 208.864 4.22732 206.465 2.88996C203.985 1.50629 201.295 0.536789 198.502 0.0196819C195.237 -0.109989 191.978 0.400314 188.908 1.52184C185.959 2.43308 183.115 3.65741 180.426 5.1739C176.64 7.15626 172.958 9.33329 169.397 11.6963L163.59 15.2869C163.313 15.4716 163.037 15.6561 162.762 15.8399C161.094 16.9563 159.465 18.047 157.782 19.006ZM242.612 46.4803C250.786 49.2158 259.268 50.9246 267.864 51.5675C275.353 52.1062 282.743 53.598 289.854 56.007C295.046 58.528 299.192 62.7852 301.576 68.0413C303.959 73.2975 304.429 79.2216 302.904 84.7879C302.506 87.2749 301.962 89.7362 301.274 92.1591C301.102 92.6762 300.933 93.19 300.766 93.6972L300.765 93.7002C300.174 95.4977 299.611 97.2112 299.04 98.687C297.515 101.849 296.934 105.383 297.365 108.867C294.124 104.892 284.943 103.659 276.018 102.461L275.112 102.339C270.769 101.788 266.566 100.438 262.715 98.3575C260.821 97.2636 259.197 95.7566 257.965 93.9487C256.734 92.1408 255.925 90.0785 255.601 87.9151C255.164 86.6576 255.092 84.6233 255.004 82.1038V82.1036C254.882 78.6037 254.727 74.1675 253.512 69.5766C252.294 60.954 248.494 52.9022 242.612 46.4803ZM308.382 135.487C305.578 132.52 303.226 129.155 301.402 125.502H301.38C301.551 129.813 301.067 134.125 299.944 138.29C298.59 142.385 296.846 146.34 294.734 150.101C292.684 154.096 290.096 157.534 288.013 160.301L288.013 160.302L288.013 160.302C286.387 162.463 285.068 164.214 284.554 165.502C283.376 167.357 282.649 169.463 282.434 171.65C282.219 173.838 282.52 176.045 283.315 178.094C284.959 182.172 287.375 185.894 290.429 189.056C291.754 190.698 293.082 192.21 294.354 193.659L294.355 193.66C296.116 195.666 297.773 197.553 299.174 199.499C301.427 202 302.822 205.156 303.155 208.506C305.039 205.682 307.657 203.425 310.727 201.978C312.306 201.083 313.924 200.065 315.585 199.02C315.987 198.768 316.391 198.513 316.797 198.259C318.887 196.857 320.892 195.331 322.801 193.691C327.585 190.385 331.052 185.498 332.591 179.889C334.13 174.28 333.643 168.308 331.216 163.023C329.73 160.313 327.981 157.756 325.995 155.389L322.147 150.626L317.451 145.667C315.784 143.761 314.188 141.985 312.624 140.246C311.192 138.652 309.787 137.089 308.382 135.487ZM47.9575 252.42L47.9533 252.417C47.0518 250.587 46.2716 248.701 45.6177 246.769C45.1704 244.617 44.8866 242.435 44.7689 240.241C44.3665 235.882 44.5864 231.488 45.4223 227.191C46.2264 222.952 47.1199 219.429 47.9016 216.424C48.6971 214.05 49.3296 211.625 49.7947 209.165C50.1915 206.855 50.0346 204.484 49.3368 202.246C48.9258 200.292 48.0289 198.473 46.729 196.958C43.7319 193.779 40.2532 191.092 36.4205 188.995C35.7597 188.648 35.0899 188.299 34.416 187.949L34.3916 187.936L34.3834 187.932C31.0071 186.175 27.528 184.365 24.5429 182.467C21.5828 180.927 19.2683 178.383 18.015 175.291C17.7129 178.309 15.0342 181.7 11.7948 185.801L11.7947 185.801C9.40527 188.826 6.71072 192.238 4.4398 196.17C1.63135 200.753 0.0986477 206.002 0.000359927 211.376C-0.0169991 214.428 0.593731 217.451 1.79457 220.258C2.9954 223.064 4.76067 225.593 6.98061 227.688C12.7572 232.349 19.0919 236.274 25.8385 239.37C33.7162 242.797 41.1433 247.179 47.9533 252.417L47.9687 252.448L47.9575 252.42ZM130.179 306.777C126.098 306.613 122.014 307.008 118.039 307.949C113.734 308.603 109.166 309.625 104.637 310.741C97.4431 312.604 90.0715 313.697 82.6465 314.003C76.5504 313.444 70.8995 310.573 66.8544 305.978C63.5627 301.734 61.3253 296.77 60.3265 291.493C59.6628 287.11 59.4857 282.943 59.3283 279.239C59.0991 273.843 58.9115 269.429 57.3222 266.76C60.2807 269.183 66.6617 268.005 73.4134 266.759C75.748 266.328 78.1269 265.889 80.424 265.588C89.3643 264.415 97.9752 263.304 103.721 272.115C104.457 273.405 105.338 275.322 106.433 277.702C107.832 280.745 109.579 284.545 111.813 288.756C114.097 292.372 116.697 295.778 119.58 298.936C122.554 302.232 126.158 304.898 130.179 306.777ZM219.381 304.035C221.9 300.811 224.792 297.898 227.998 295.357C219.565 297.284 210.749 296.65 202.679 293.537C198.308 291.765 194.577 290.015 191.574 288.606C189.152 287.469 187.204 286.555 185.775 286.031C183.727 285.261 181.537 284.939 179.354 285.085C177.17 285.231 175.043 285.844 173.116 286.88C169.355 289.19 166.094 292.228 163.522 295.815C162.185 297.329 160.85 298.959 159.526 300.576C154.975 306.135 150.55 311.54 146.558 311.54C149.59 312.348 152.532 315.641 156.102 319.636C158.599 322.431 161.404 325.57 164.762 328.443C168.859 331.853 173.692 334.265 178.879 335.491C184.955 336.406 191.15 334.957 196.19 331.442C201.702 326.458 206.668 320.902 211.005 314.868C213.797 311.082 216.589 307.296 219.381 304.035ZM295.662 223.84C294.658 227.804 294.281 231.9 294.545 235.98V235.981C294.545 240.42 294.545 244.915 295.003 249.617C295.228 253.964 295.228 258.32 295.003 262.667C295.087 265.789 294.891 268.912 294.417 271.998C292.823 277.908 289.045 282.991 283.846 286.221C279.059 288.661 273.756 289.913 268.383 289.873C263.461 289.814 258.551 289.356 253.702 288.505C250.38 287.69 246.911 287.69 243.589 288.505C246.604 285.49 246.51 278.028 246.413 270.376C246.393 268.758 246.373 267.132 246.381 265.537C246.063 261.112 246.664 256.669 248.146 252.487C248.884 250.439 250.088 248.59 251.664 247.088C253.24 245.585 255.144 244.471 257.226 243.831C258.549 243.12 260.875 242.555 263.769 241.852C266.982 241.071 270.895 240.12 274.911 238.61C278.922 237.04 282.786 235.119 286.459 232.87C289.962 230.339 293.065 227.295 295.662 223.84ZM58.7906 67.9459L58.8125 67.9079C62.202 65.2827 66.1065 63.4005 70.2718 62.384C72.4218 61.8441 74.6014 61.4301 76.7997 61.1443H83.3053C88.518 60.983 93.2888 61.4891 96.8995 61.8722C98.9129 62.0858 100.566 62.2611 101.733 62.2611C103.908 62.2364 106.055 61.7663 108.041 60.8798C110.027 59.9934 111.811 58.7093 113.281 57.1069C115.846 53.5781 117.87 49.6857 119.284 45.5588C119.587 44.6747 119.887 43.786 120.187 42.9002L120.187 42.8984C122.912 34.828 125.557 26.9943 129.788 24.9363C126.905 25.1928 123.181 23.185 118.721 20.7802C115.216 18.8905 111.257 16.7556 106.893 15.2813C104.362 14.4011 101.764 13.7251 99.1253 13.2598C96.4853 12.8693 93.8022 12.8693 91.1623 13.2598C88.3602 13.7789 85.6672 14.7723 83.1992 16.1971C80.4594 17.9972 78.107 20.3267 76.2804 23.0489C74.6605 25.6567 73.2847 28.4083 72.1704 31.2688C71.782 32.4523 71.3603 33.7352 70.9199 35.0752C70.0239 37.8009 69.0503 40.7628 68.1218 43.6043C66.737 47.8427 65.313 52.2822 63.9449 56.6546C62.5867 60.5568 60.8685 64.3241 58.8125 67.9079L58.7851 67.9291L58.7906 67.9459ZM16.6357 146.599C18.015 150.416 19.085 154.338 19.8355 158.326C20.3326 156.375 21.0093 154.468 21.857 152.642C22.8934 150.697 24.0711 148.83 25.3806 147.057C27.8789 143.545 30.82 140.369 34.131 137.609C37.9093 134.471 41.5063 132.017 44.355 130.074C46.3271 128.728 47.9405 127.628 49.0073 126.714C50.778 125.184 52.1825 123.275 53.1173 121.13C53.9965 119.339 54.4857 117.383 54.5524 115.389C54.2908 110.915 53.322 106.51 51.6822 102.339C50.9289 100.04 50.0753 97.775 49.2465 95.5759C48.4286 93.4057 47.6349 91.2997 46.9859 89.2888C45.7217 86.15 45.5603 82.6751 46.5279 79.4327C43.6729 81.4032 40.3757 82.6385 36.9287 83.0289C32.1305 83.9511 27.3994 85.1936 22.7672 86.748C17.1826 88.2251 12.2913 91.6104 8.94164 96.3166C5.59198 101.023 3.99533 106.753 4.42866 112.513C5.90182 119.765 8.2241 126.818 11.3475 133.527C12.1576 135.749 13.0853 137.913 13.9897 140.022C14.9554 142.275 15.8946 144.465 16.6357 146.599Z" fill="#4762B3"/>
</svg>
