<svg width="321" height="532" viewBox="0 0 321 532" fill="none" xmlns="http://www.w3.org/2000/svg">
<path opacity="0.05" fill-rule="evenodd" clip-rule="evenodd" d="M250.461 30.2802C244.98 33.6152 239.121 36.2852 233.008 38.2337C246.599 39.5837 259.473 44.9803 269.965 53.7254C275.615 58.4316 280.229 63.3617 283.941 67.3271C286.906 70.4952 289.295 73.0476 291.175 74.3781C293.85 76.5587 296.943 78.1689 300.264 79.1097C303.585 80.0504 307.063 80.3018 310.484 79.8484C317.141 78.1981 323.511 75.5525 329.378 72.0009C331.178 70.9383 332.97 69.8563 334.743 68.7858C345.889 62.0566 356.283 55.7812 363.145 57.6492C359.226 53.7768 356.411 48.9295 354.989 43.6067C352.2 36.5189 348.952 29.6201 345.268 22.9541C343.132 19.277 340.643 15.8171 337.835 12.6233C334.778 9.53415 331.301 6.89222 327.505 4.7758C323.579 2.58608 319.323 1.05179 314.903 0.233442C309.735 0.0282306 304.578 0.835811 299.72 2.61068C295.052 4.05276 290.552 5.99031 286.296 8.39024C280.304 11.5274 274.479 14.9727 268.843 18.7122L259.652 24.3945C259.214 24.6869 258.777 24.9789 258.343 25.2698C255.703 27.0365 253.125 28.7626 250.461 30.2802ZM384.708 73.7596C397.644 78.0886 411.068 80.7929 424.671 81.8103C436.523 82.6628 448.217 85.0237 459.472 88.836C467.688 92.8256 474.25 99.5628 478.021 107.881C481.793 116.199 482.537 125.574 480.124 134.383C479.494 138.319 478.633 142.214 477.544 146.048C477.275 146.858 477.01 147.662 476.749 148.456L476.74 148.483L476.74 148.484C475.804 151.33 474.912 154.043 474.009 156.379C471.596 161.383 470.676 166.976 471.358 172.489C466.229 166.198 451.7 164.248 437.575 162.351C437.096 162.287 436.618 162.223 436.141 162.159C429.269 161.286 422.618 159.15 416.523 155.858C413.525 154.127 410.955 151.742 409.006 148.881C407.057 146.02 405.778 142.756 405.264 139.332C404.572 137.342 404.46 134.123 404.32 130.136V130.135C404.126 124.597 403.881 117.576 401.959 110.311C400.03 96.6648 394.016 83.9225 384.708 73.7596ZM488.793 214.617C484.355 209.921 480.633 204.597 477.746 198.816H477.711C477.983 205.638 477.217 212.461 475.44 219.053C473.297 225.533 470.536 231.792 467.195 237.744C463.949 244.066 459.854 249.507 456.558 253.887C453.985 257.307 451.898 260.079 451.084 262.117C449.219 265.053 448.07 268.386 447.729 271.847C447.388 275.309 447.866 278.802 449.123 282.045C451.725 288.498 455.548 294.388 460.381 299.393C462.479 301.991 464.579 304.383 466.593 306.677L466.594 306.678C469.382 309.853 472.004 312.84 474.22 315.918C477.786 319.877 479.994 324.871 480.521 330.173C483.502 325.704 487.645 322.132 492.505 319.842C495.003 318.426 497.564 316.815 500.193 315.161C500.828 314.761 501.467 314.359 502.111 313.957C505.418 311.737 508.59 309.324 511.611 306.728C519.183 301.495 524.669 293.761 527.105 284.885C529.54 276.009 528.77 266.558 524.929 258.193C522.577 253.905 519.81 249.859 516.666 246.113L510.577 238.575L503.145 230.727C500.512 227.717 497.99 224.911 495.521 222.164L495.518 222.161L495.511 222.154L495.507 222.148L495.506 222.148C493.239 219.625 491.016 217.152 488.793 214.617ZM76.6587 399.669L76.6521 399.664C75.2254 396.769 73.9907 393.783 72.9559 390.726C72.248 387.321 71.7989 383.868 71.6126 380.395C70.9757 373.497 71.3239 366.543 72.6466 359.742C73.9191 353.035 75.3331 347.458 76.5703 342.704C77.8292 338.947 78.8301 335.109 79.5662 331.216C80.1942 327.56 79.9458 323.807 78.8415 320.266C78.1911 317.174 76.7717 314.296 74.7145 311.897C69.9715 306.867 64.4662 302.614 58.4009 299.295C57.3381 298.738 56.2607 298.177 55.1766 297.613C49.8336 294.834 44.3279 291.969 39.604 288.965C34.9195 286.528 31.2567 282.502 29.2733 277.609C28.7952 282.384 24.5561 287.751 19.4295 294.241C15.648 299.029 11.3837 304.428 7.78987 310.651C3.34536 317.903 0.919787 326.211 0.764241 334.715C0.73677 339.545 1.70328 344.33 3.60366 348.77C5.50404 353.211 8.29766 357.214 11.8108 360.529C20.9525 367.906 30.9775 374.117 41.6543 379.016C54.1211 384.441 65.8749 391.375 76.6521 399.664L76.6764 399.713L76.6587 399.669ZM206.779 485.691C200.32 485.433 193.856 486.057 187.566 487.547C180.753 488.581 173.524 490.198 166.357 491.965C154.972 494.913 143.306 496.643 131.556 497.126C121.908 496.243 112.965 491.699 106.564 484.427C101.355 477.711 97.8139 469.855 96.2332 461.503C95.1828 454.568 94.9026 447.973 94.6535 442.111C94.2907 433.572 93.9939 426.587 91.4787 422.363C96.1607 426.198 106.259 424.334 116.944 422.361L116.945 422.361L116.946 422.361C120.64 421.679 124.404 420.984 128.038 420.507C142.187 418.651 155.814 416.893 164.908 430.838C166.071 432.878 167.466 435.912 169.198 439.679C171.412 444.495 174.177 450.509 177.713 457.173C181.328 462.895 185.441 468.286 190.005 473.283C194.711 478.499 200.415 482.717 206.779 485.691ZM347.945 481.352C351.931 476.251 356.508 471.641 361.581 467.619C348.236 470.668 334.284 469.665 321.513 464.738C314.596 461.935 308.691 459.164 303.939 456.934L303.938 456.934C300.106 455.136 297.023 453.689 294.762 452.861C291.52 451.642 288.055 451.131 284.6 451.363C281.144 451.595 277.778 452.563 274.728 454.204C268.776 457.859 263.615 462.667 259.546 468.344C257.429 470.739 255.317 473.319 253.222 475.877L253.221 475.879C246.019 484.676 239.017 493.229 232.698 493.229C237.497 494.508 242.153 499.719 247.802 506.042C251.755 510.465 256.193 515.433 261.508 519.98C267.992 525.375 275.639 529.193 283.848 531.132C293.463 532.58 303.268 530.287 311.244 524.725C319.967 516.838 327.826 508.046 334.689 498.496C339.108 492.505 343.526 486.513 347.945 481.352ZM468.663 354.44C467.074 360.712 466.478 367.195 466.895 373.652V373.654C466.895 380.679 466.895 387.792 467.62 395.233C467.975 402.112 467.975 409.006 467.62 415.885C467.753 420.826 467.442 425.768 466.692 430.652C464.17 440.004 458.191 448.049 449.963 453.161C442.388 457.022 433.995 459.004 425.493 458.941C417.703 458.846 409.933 458.122 402.26 456.775C397.003 455.486 391.512 455.486 386.255 456.775C391.026 452.005 390.877 440.195 390.725 428.086V428.083V428.081V428.078V428.076V428.073C390.692 425.517 390.66 422.947 390.674 420.428C390.171 413.425 391.121 406.393 393.466 399.775C394.634 396.533 396.541 393.608 399.035 391.23C401.529 388.853 404.542 387.089 407.836 386.077C409.93 384.951 413.611 384.057 418.19 382.944L418.191 382.944C423.276 381.709 429.468 380.204 435.823 377.814C442.171 375.33 448.286 372.29 454.099 368.73C459.643 364.724 464.553 359.907 468.663 354.44ZM93.8026 107.73L93.8372 107.67C99.2013 103.515 105.38 100.537 111.972 98.9279C115.375 98.0735 118.824 97.4184 122.303 96.9661H132.598C140.848 96.7108 148.398 97.5118 154.112 98.118L154.112 98.118C157.298 98.4561 159.914 98.7335 161.761 98.7335C165.203 98.6944 168.6 97.9504 171.744 96.5476C174.887 95.1447 177.709 93.1126 180.037 90.5767C184.096 84.9922 187.298 78.8324 189.537 72.3013C190.017 70.9011 190.492 69.4938 190.966 68.091C195.278 55.3193 199.463 42.922 206.16 39.6653C201.597 40.071 195.704 36.8937 188.646 33.0879C183.099 30.0974 176.833 26.7188 169.927 24.3856C165.921 22.9928 161.811 21.923 157.634 21.1865C153.456 20.5686 149.21 20.5686 145.032 21.1865C140.598 22.0081 136.336 23.5801 132.43 25.8349C128.094 28.6836 124.372 32.3703 121.481 36.6783C118.917 40.8052 116.74 45.1598 114.977 49.6867C114.362 51.5588 113.695 53.5883 112.998 55.7081L112.998 55.7104C111.58 60.024 110.039 64.7114 108.57 69.2082C106.378 75.9157 104.125 82.9413 101.959 89.8609C99.8101 96.0362 97.0909 101.998 93.8372 107.67L93.7938 107.703L93.8026 107.73ZM27.0904 232.203C29.2731 238.243 30.9665 244.449 32.1542 250.761C32.9409 247.673 34.0118 244.656 35.3533 241.765C36.9935 238.687 38.8573 235.733 40.9296 232.928C44.8833 227.369 49.5377 222.343 54.7776 217.975C60.757 213.009 66.4494 209.125 70.9576 206.05C74.0784 203.921 76.6318 202.179 78.32 200.733C81.1222 198.312 83.3449 195.292 84.8242 191.896C86.2156 189.063 86.9897 185.966 87.0954 182.811C86.6814 175.731 85.1482 168.76 82.5531 162.159C81.3611 158.52 80.0101 154.936 78.6985 151.456C77.4041 148.021 76.1481 144.688 75.1209 141.506C73.1204 136.539 72.8649 131.04 74.3963 125.908C69.8781 129.027 64.66 130.982 59.205 131.6C51.6116 133.059 44.1244 135.025 36.7937 137.485C27.9559 139.823 20.2151 145.18 14.9141 152.628C9.61315 160.076 7.08638 169.144 7.77215 178.26C10.1035 189.737 13.7786 200.898 18.7215 211.515C20.0036 215.032 21.4717 218.456 22.903 221.795C24.4313 225.359 25.9176 228.826 27.0904 232.203Z" fill="#4762B3"/>
</svg>
