<?xml version="1.0" encoding="UTF-8" standalone="no"?>
<!DOCTYPE svg PUBLIC "-//W3C//DTD SVG 1.1//EN" "http://www.w3.org/Graphics/SVG/1.1/DTD/svg11.dtd">
<svg xmlns="http://www.w3.org/2000/svg" version="1.1" viewBox="0 0 468 533" width="468" height="533">
<path fill="#3557b8" d="
  M 0.00 279.69
  L 0.00 242.69
  Q 9.39 156.99 64.85 91.61
  C 112.14 35.87 189.21 0.96 262.24 2.37
  Q 349.69 4.06 419.63 55.55
  Q 445.25 74.40 464.96 99.24
  A 1.01 1.01 0.0 0 1 465.06 100.34
  L 458.76 112.01
  Q 457.56 114.25 455.04 113.30
  C 450.66 111.66 447.74 109.53 444.11 105.96
  C 401.74 64.29 355.47 34.36 295.50 26.49
  C 251.43 20.71 206.53 25.86 165.56 43.33
  C 79.19 80.17 23.40 167.39 20.58 261.00
  C 19.59 293.95 27.61 328.68 40.25 359.04
  C 71.73 434.68 145.85 491.08 226.71 502.12
  Q 251.72 505.54 277.00 506.15
  Q 279.40 506.21 281.93 506.79
  Q 284.74 507.43 284.47 510.30
  C 283.80 517.46 288.00 523.94 276.95 524.48
  C 191.46 528.71 113.08 496.00 59.22 429.79
  C 25.49 388.33 2.47 332.95 0.00 279.69
  Z"
/>
<path fill="#3557b8" d="
  M 194.01 271.18
  Q 191.69 272.41 193.56 274.24
  Q 212.29 292.71 229.79 310.71
  Q 234.18 315.23 237.94 323.45
  A 1.01 1.00 38.7 0 1 238.01 324.05
  C 236.00 334.86 221.89 322.84 218.39 319.59
  Q 189.02 292.28 168.30 268.45
  C 165.00 264.66 167.14 260.67 170.25 257.28
  Q 191.39 234.24 213.87 212.50
  C 218.70 207.82 228.15 198.07 235.01 200.40
  A 1.00 0.99 8.5 0 1 235.69 201.31
  Q 235.91 208.44 231.30 213.57
  Q 212.59 234.42 192.09 253.55
  A 1.00 1.00 0.0 0 0 192.40 255.21
  Q 196.10 256.69 201.00 256.71
  Q 268.50 257.00 336.00 257.90
  A 1.01 0.99 -18.4 0 1 336.76 258.27
  Q 339.57 261.70 338.46 266.46
  A 1.00 1.00 0.0 0 1 337.60 267.23
  Q 332.60 267.79 325.75 269.22
  C 322.20 269.96 314.84 268.96 310.10 269.21
  C 278.44 270.93 246.70 270.63 215.02 269.99
  C 208.79 269.86 202.96 270.17 196.99 270.61
  Q 194.78 270.77 194.01 271.18
  Z"
/>
</svg>
