<svg width="33" height="34" viewBox="0 0 33 34" fill="none" xmlns="http://www.w3.org/2000/svg">
<path fill-rule="evenodd" clip-rule="evenodd" d="M15.6139 2.5605C15.2712 2.76904 14.9048 2.936 14.5225 3.05784C15.3724 3.14226 16.1775 3.47971 16.8335 4.02656C17.1868 4.32084 17.4753 4.62913 17.7074 4.87709C17.8928 5.0752 18.0422 5.2348 18.1598 5.318C18.3271 5.45435 18.5205 5.55504 18.7281 5.61387C18.9358 5.67269 19.1533 5.68841 19.3672 5.66006C19.7835 5.55687 20.1818 5.39143 20.5487 5.16935C20.6612 5.10293 20.7732 5.03529 20.8841 4.96837L20.8841 4.96834L20.8842 4.96831C21.5811 4.54752 22.2311 4.15511 22.6602 4.27192C22.4151 4.02977 22.2391 3.72667 22.1501 3.39383C21.9757 2.95062 21.7727 2.51923 21.5423 2.10239C21.4087 1.87246 21.2531 1.6561 21.0775 1.45639C20.8864 1.26323 20.6689 1.09802 20.4315 0.965679C20.1861 0.828754 19.9199 0.732813 19.6435 0.68164C19.3204 0.668808 18.9979 0.719307 18.6941 0.830292C18.4022 0.920467 18.1208 1.04162 17.8547 1.1917C17.48 1.38787 17.1158 1.6033 16.7633 1.83714L16.1886 2.19246L16.1068 2.24719C15.9417 2.35767 15.7805 2.4656 15.6139 2.5605ZM24.0085 5.2793C24.8174 5.54999 25.6568 5.7191 26.5074 5.78272C27.2485 5.83603 27.9798 5.98366 28.6836 6.22204C29.1973 6.47152 29.6077 6.8928 29.8435 7.41295C30.0794 7.93309 30.1259 8.51933 29.975 9.07017C29.9356 9.31627 29.8817 9.55984 29.8137 9.7996C29.7967 9.85069 29.78 9.90146 29.7635 9.95158L29.7634 9.95175C29.7049 10.1298 29.6491 10.2995 29.5926 10.4456C29.4417 10.7585 29.3842 11.1082 29.4268 11.453C29.1061 11.0596 28.1976 10.9376 27.3143 10.819L27.2247 10.807C26.795 10.7524 26.3791 10.6188 25.9979 10.413C25.8104 10.3047 25.6498 10.1556 25.5279 9.97671C25.406 9.7978 25.326 9.59371 25.2939 9.37963C25.2507 9.25519 25.2436 9.05388 25.2349 8.80455V8.80453C25.2228 8.45818 25.2074 8.01919 25.0872 7.56487C24.9666 6.71159 24.5906 5.91479 24.0085 5.2793ZM30.5171 14.0874C30.2396 13.7938 30.0068 13.4609 29.8263 13.0994H29.8241C29.8411 13.5259 29.7932 13.9526 29.6821 14.3648C29.5481 14.77 29.3755 15.1614 29.1665 15.5336C28.9636 15.9289 28.7075 16.2692 28.5014 16.543L28.5014 16.543L28.5014 16.5431C28.3405 16.7569 28.21 16.9302 28.1591 17.0577C28.0425 17.2413 27.9706 17.4497 27.9493 17.6661C27.928 17.8826 27.9579 18.101 28.0365 18.3038C28.1992 18.7073 28.4382 19.0756 28.7405 19.3886C28.8715 19.5509 29.0028 19.7003 29.1286 19.8437L29.1286 19.8437L29.1287 19.8438L29.1289 19.844L29.1289 19.8441C29.3033 20.0427 29.4672 20.2294 29.6059 20.4219C29.8288 20.6695 29.9669 20.9818 29.9999 21.3133C30.1862 21.0338 30.4453 20.8105 30.7492 20.6673C30.9052 20.5789 31.0651 20.4783 31.2292 20.375L31.2293 20.375L31.2295 20.3749L31.2298 20.3747L31.2298 20.3746L31.3499 20.2993C31.5567 20.1605 31.7551 20.0096 31.9439 19.8472C32.4174 19.52 32.7605 19.0364 32.9128 18.4814C33.0651 17.9263 33.0169 17.3354 32.7767 16.8123C32.6297 16.5442 32.4566 16.2912 32.26 16.0569L31.8793 15.5855L31.4145 15.0948C31.2496 14.9063 31.0916 14.7305 30.9369 14.5584L30.9369 14.5583C30.7951 14.4006 30.6561 14.246 30.5171 14.0874ZM4.74581 25.6587L4.7454 25.6584C4.65619 25.4774 4.57898 25.2906 4.51427 25.0995C4.47 24.8866 4.44192 24.6706 4.43027 24.4535C4.39045 24.0221 4.41222 23.5873 4.49493 23.162C4.5745 22.7426 4.66292 22.3939 4.74028 22.0966C4.819 21.8617 4.88159 21.6217 4.92762 21.3782C4.96689 21.1496 4.95135 20.915 4.8823 20.6935C4.84163 20.5002 4.75288 20.3202 4.62423 20.1702C4.32765 19.8557 3.9834 19.5897 3.60413 19.3822C3.53767 19.3474 3.4703 19.3123 3.40252 19.277C3.06841 19.1032 2.72413 18.9241 2.42874 18.7362C2.13581 18.5839 1.90677 18.3321 1.78274 18.0261C1.75285 18.3247 1.48777 18.6603 1.1672 19.0662C0.930738 19.3656 0.664086 19.7031 0.439357 20.0923C0.161436 20.5458 0.00976205 21.0653 3.56178e-05 21.5971C-0.00168221 21.8991 0.0587548 22.1983 0.177588 22.476C0.296421 22.7536 0.471109 23.0039 0.690792 23.2112C1.26243 23.6725 1.88931 24.0609 2.55694 24.3673C3.33651 24.7065 4.07149 25.1401 4.7454 25.6584L4.74691 25.6615L4.74581 25.6587ZM12.8824 31.038C12.4785 31.0218 12.0743 31.0609 11.681 31.154C11.255 31.2187 10.8029 31.3198 10.3548 31.4303C9.64286 31.6146 8.91338 31.7228 8.17861 31.753C7.57535 31.6978 7.01614 31.4136 6.61584 30.9589C6.29009 30.539 6.06869 30.0477 5.96985 29.5255C5.90417 29.0918 5.88665 28.6794 5.87107 28.3129C5.84838 27.7789 5.82982 27.3421 5.67255 27.078C5.96532 27.3178 6.59677 27.2012 7.2649 27.0779C7.49594 27.0352 7.73135 26.9918 7.95867 26.9619C8.84339 26.8459 9.69551 26.7359 10.2641 27.6079C10.3369 27.7355 10.4241 27.9252 10.5324 28.1608C10.6709 28.4619 10.8438 28.838 11.0649 29.2547C11.2909 29.6125 11.5482 29.9496 11.8335 30.2621C12.1278 30.5882 12.4844 30.852 12.8824 31.038ZM21.7096 30.7666C21.9589 30.4476 22.2451 30.1593 22.5623 29.9078C21.7278 30.0985 20.8554 30.0358 20.0568 29.7277C19.6243 29.5524 19.2551 29.3792 18.9579 29.2397L18.9579 29.2397L18.9577 29.2396C18.7181 29.1272 18.5254 29.0368 18.3841 28.985C18.1813 28.9088 17.9647 28.8769 17.7486 28.8913C17.5325 28.9058 17.322 28.9664 17.1313 29.069C16.7591 29.2976 16.4364 29.5982 16.1819 29.9532C16.0495 30.103 15.9175 30.2643 15.7864 30.4243C15.3361 30.9744 14.8982 31.5093 14.5031 31.5093C14.8032 31.5893 15.0943 31.9151 15.4476 32.3105C15.6947 32.5871 15.9723 32.8977 16.3046 33.182C16.7101 33.5194 17.1883 33.7581 17.7016 33.8794C18.3028 33.97 18.9159 33.8266 19.4147 33.4788C19.9601 32.9856 20.4516 32.4358 20.8807 31.8386L20.8807 31.8386C21.157 31.464 21.4333 31.0893 21.7096 30.7666ZM29.2583 22.8306C29.159 23.2228 29.1217 23.6282 29.1478 24.0319V24.032C29.1478 24.4713 29.1478 24.9161 29.1931 25.3814C29.2154 25.8116 29.2154 26.2426 29.1931 26.6728C29.2014 26.9817 29.182 27.2908 29.1351 27.5962C28.9774 28.181 28.6035 28.6841 28.089 29.0037C27.6153 29.2451 27.0905 29.3691 26.5589 29.3651C26.0717 29.3592 25.5859 29.3139 25.1061 29.2297C24.7773 29.1491 24.434 29.1491 24.1053 29.2297C24.4036 28.9314 24.3943 28.1929 24.3848 27.4357C24.3827 27.2756 24.3807 27.1147 24.3816 26.9569C24.3501 26.519 24.4096 26.0793 24.5562 25.6654C24.6292 25.4627 24.7484 25.2798 24.9044 25.1311C25.0604 24.9825 25.2488 24.8721 25.4547 24.8089C25.5857 24.7385 25.8159 24.6825 26.1022 24.613C26.4202 24.5357 26.8074 24.4417 27.2048 24.2922C27.6018 24.1369 27.9842 23.9468 28.3476 23.7241C28.6943 23.4737 29.0013 23.1724 29.2583 22.8306ZM5.81787 7.40353L5.82003 7.39977C6.15546 7.13999 6.54184 6.95373 6.95403 6.85314C7.16679 6.79971 7.38249 6.75875 7.60002 6.73046H8.24381C8.75965 6.71449 9.23176 6.76458 9.58908 6.80249C9.78832 6.82363 9.95187 6.84098 10.0674 6.84098C10.2826 6.83853 10.4951 6.79201 10.6916 6.70429C10.8882 6.61656 11.0647 6.4895 11.2102 6.33093C11.464 5.98172 11.6643 5.59653 11.8042 5.18814C11.8343 5.10058 11.864 5.01259 11.8936 4.92487L11.8936 4.92486C12.1632 4.12623 12.4249 3.35102 12.8437 3.14737C12.5584 3.17274 12.1899 2.97406 11.7485 2.73608C11.4017 2.54908 11.0099 2.33781 10.578 2.19191C10.3275 2.10482 10.0705 2.03792 9.80934 1.99187C9.54809 1.95323 9.28258 1.95323 9.02133 1.99187C8.74404 2.04324 8.47754 2.14154 8.23331 2.28254C7.96218 2.46068 7.7294 2.69121 7.54863 2.96059C7.38834 3.21865 7.25219 3.49095 7.14192 3.77402L7.01823 4.15051C6.92955 4.42029 6.83318 4.71347 6.74128 4.99473C6.60423 5.41415 6.46332 5.85347 6.32793 6.28616C6.19353 6.67232 6.02349 7.04512 5.82003 7.39977L5.81732 7.40187L5.81787 7.40353ZM1.64623 15.187C1.78272 15.5647 1.88861 15.9528 1.96287 16.3475C2.01207 16.1544 2.07903 15.9657 2.16291 15.7849C2.26548 15.5925 2.38203 15.4078 2.51161 15.2323C2.75884 14.8847 3.04989 14.5705 3.37754 14.2973C3.75144 13.9868 4.10739 13.744 4.3893 13.5517C4.58445 13.4185 4.74411 13.3096 4.84968 13.2192C5.0249 13.0677 5.16389 12.8789 5.2564 12.6666C5.3434 12.4894 5.39181 12.2958 5.39842 12.0985C5.37252 11.6557 5.27666 11.2198 5.11438 10.8071C5.03984 10.5796 4.95536 10.3554 4.87335 10.1378C4.79241 9.92303 4.71387 9.71463 4.64964 9.51563C4.52454 9.20502 4.50856 8.86115 4.60432 8.54028C4.3218 8.73528 3.9955 8.85752 3.6544 8.89616C3.17957 8.98742 2.71139 9.11037 2.25299 9.2642C1.70035 9.41037 1.21631 9.74537 0.884832 10.2111C0.553355 10.6768 0.395352 11.2439 0.438235 11.8139C0.584016 12.5315 0.813826 13.2295 1.12291 13.8934C1.20308 14.1133 1.29489 14.3274 1.38438 14.5362C1.47995 14.7591 1.57289 14.9758 1.64623 15.187Z" fill="#3B3077"/>
</svg>
