<svg width="34" height="34" viewBox="0 0 34 34" fill="none" xmlns="http://www.w3.org/2000/svg">
<path fill-rule="evenodd" clip-rule="evenodd" d="M16.1139 1.91401C15.7712 2.12256 15.4048 2.28952 15.0225 2.41136C15.8724 2.49578 16.6775 2.83323 17.3335 3.38008C17.6868 3.67436 17.9753 3.98264 18.2074 4.23061C18.3928 4.42871 18.5422 4.58832 18.6598 4.67151C18.8271 4.80787 19.0205 4.90856 19.2281 4.96738C19.4358 5.02621 19.6533 5.04193 19.8672 5.01358C20.2835 4.91038 20.6818 4.74495 21.0487 4.52286C21.1612 4.45644 21.2732 4.3888 21.3841 4.32188L21.3841 4.32185L21.3842 4.32182C22.0811 3.90104 22.7311 3.50863 23.1602 3.62543C22.9151 3.38329 22.7391 3.08018 22.6501 2.74734C22.4757 2.30413 22.2727 1.87274 22.0423 1.4559C21.9087 1.22598 21.7531 1.00962 21.5775 0.809909C21.3864 0.616741 21.1689 0.451538 20.9315 0.319195C20.6861 0.182269 20.4199 0.0863283 20.1435 0.0351561C19.8204 0.022324 19.4979 0.072823 19.1941 0.183807C18.9022 0.273983 18.6208 0.39514 18.3547 0.545211C17.98 0.741382 17.6158 0.956819 17.2633 1.19065L16.6886 1.54598L16.6068 1.60071C16.4417 1.71118 16.2805 1.81912 16.1139 1.91401ZM24.5085 4.63281C25.3174 4.90351 26.1568 5.07261 27.0074 5.13624C27.7485 5.18954 28.4798 5.33717 29.1836 5.57556C29.6973 5.82503 30.1077 6.24632 30.3435 6.76646C30.5794 7.2866 30.6259 7.87285 30.475 8.42368C30.4356 8.66979 30.3817 8.91336 30.3137 9.15312C30.2972 9.20257 30.281 9.25173 30.2651 9.30028L30.2635 9.30515L30.2634 9.30533C30.2049 9.48332 30.1491 9.65299 30.0926 9.79912C29.9417 10.112 29.8842 10.4618 29.9268 10.8065C29.6061 10.4131 28.6976 10.2911 27.8143 10.1726L27.7247 10.1605C27.295 10.1059 26.8791 9.97236 26.4979 9.76651C26.3104 9.65826 26.1498 9.50913 26.0279 9.33022C25.906 9.15131 25.826 8.94723 25.7939 8.73314C25.7507 8.6087 25.7436 8.40739 25.7349 8.15806V8.15804C25.7228 7.8117 25.7074 7.3727 25.5872 6.91839C25.4666 6.06511 25.0906 5.26831 24.5085 4.63281ZM31.0171 13.4409C30.7396 13.1473 30.5068 12.8144 30.3263 12.4529H30.3241C30.3411 12.8795 30.2932 13.3061 30.1821 13.7183C30.0481 14.1236 29.8755 14.5149 29.6665 14.8871C29.4636 15.2824 29.2075 15.6227 29.0014 15.8965L29.0014 15.8966L29.0014 15.8966L29.0013 15.8967C28.8404 16.1104 28.71 16.2838 28.6591 16.4112C28.5425 16.5948 28.4706 16.8032 28.4493 17.0196C28.428 17.2361 28.4579 17.4545 28.5365 17.6573C28.6992 18.0608 28.9382 18.4291 29.2405 18.7421C29.3716 18.9044 29.5029 19.054 29.6287 19.1974L29.6289 19.1975L29.6289 19.1976L29.629 19.1976L29.629 19.1977C29.8033 19.3962 29.9673 19.583 30.1059 19.7754C30.3288 20.023 30.4669 20.3353 30.4999 20.6668C30.6862 20.3873 30.9453 20.164 31.2492 20.0208C31.4052 19.9324 31.5651 19.8318 31.7292 19.7286L31.7293 19.7285L31.7295 19.7284L31.7298 19.7282L31.7298 19.7281L31.8499 19.6528C32.0567 19.514 32.2551 19.3631 32.4439 19.2007C32.9174 18.8735 33.2605 18.3899 33.4128 17.8349C33.5651 17.2798 33.5169 16.6889 33.2767 16.1658C33.1297 15.8977 32.9566 15.6447 32.76 15.4104L32.3793 14.9391L31.9145 14.4483C31.7496 14.2598 31.5916 14.084 31.4369 13.9119C31.2951 13.7542 31.1561 13.5995 31.0171 13.4409ZM5.24581 25.0122L5.2454 25.0119C5.15619 24.8309 5.07898 24.6442 5.01427 24.453C4.97 24.2401 4.94192 24.0241 4.93027 23.807C4.89045 23.3756 4.91222 22.9408 4.99493 22.5155C5.0745 22.0961 5.16292 21.7474 5.24028 21.4501C5.319 21.2152 5.38159 20.9752 5.42762 20.7317C5.46689 20.5031 5.45135 20.2685 5.3823 20.0471C5.34163 19.8537 5.25288 19.6737 5.12423 19.5237C4.82765 19.2092 4.4834 18.9433 4.10413 18.7357C4.03805 18.7011 3.97108 18.6662 3.90369 18.6312L3.90252 18.6306C3.56841 18.4567 3.22413 18.2776 2.92874 18.0897C2.63581 17.9374 2.40677 17.6856 2.28274 17.3796C2.25285 17.6783 1.98777 18.0139 1.6672 18.4197C1.43074 18.7191 1.16409 19.0567 0.939357 19.4458C0.661436 19.8993 0.509762 20.4188 0.500036 20.9506C0.498318 21.2526 0.558755 21.5518 0.677588 21.8295C0.796421 22.1072 0.971109 22.3574 1.19079 22.5647C1.76243 23.0261 2.38931 23.4144 3.05694 23.7208C3.83651 24.06 4.57149 24.4936 5.2454 25.0119L5.24691 25.015L5.24581 25.0122ZM13.3824 30.3915C12.9785 30.3753 12.5743 30.4144 12.181 30.5075C11.755 30.5722 11.3029 30.6733 10.8548 30.7838C10.1429 30.9681 9.41338 31.0763 8.67861 31.1065C8.07535 31.0513 7.51614 30.7671 7.11584 30.3124C6.79009 29.8925 6.56869 29.4012 6.46985 28.879C6.40417 28.4453 6.38665 28.0329 6.37107 27.6664C6.34838 27.1324 6.32982 26.6956 6.17255 26.4315C6.46532 26.6713 7.09677 26.5547 7.7649 26.4314C7.99594 26.3887 8.23135 26.3453 8.45867 26.3155C9.34339 26.1994 10.1955 26.0894 10.7641 26.9615C10.8369 27.089 10.9241 27.2788 11.0324 27.5143L11.0325 27.5143C11.1709 27.8155 11.3438 28.1915 11.5649 28.6082C11.7909 28.966 12.0482 29.3031 12.3335 29.6156C12.6278 29.9417 12.9844 30.2055 13.3824 30.3915ZM22.2096 30.1201C22.4589 29.8011 22.7451 29.5128 23.0623 29.2614C22.2278 29.452 21.3554 29.3893 20.5568 29.0812C20.1243 28.9059 19.7551 28.7327 19.4579 28.5932L19.4579 28.5932L19.4577 28.5931C19.2181 28.4807 19.0254 28.3903 18.8841 28.3385C18.6813 28.2623 18.4647 28.2304 18.2486 28.2449C18.0325 28.2593 17.822 28.3199 17.6313 28.4225C17.2591 28.6511 16.9364 28.9517 16.6819 29.3067C16.5495 29.4565 16.4175 29.6178 16.2864 29.7779C15.8361 30.3279 15.3982 30.8628 15.0031 30.8628C15.3032 30.9428 15.5943 31.2686 15.9476 31.664C16.1947 31.9406 16.4723 32.2512 16.8046 32.5355C17.2101 32.8729 17.6883 33.1116 18.2016 33.2329C18.8028 33.3235 19.4159 33.1801 19.9147 32.8323C20.4601 32.3391 20.9516 31.7893 21.3807 31.1922C21.657 30.8175 21.9333 30.4428 22.2096 30.1201ZM29.7583 22.1841C29.659 22.5763 29.6217 22.9817 29.6478 23.3854V23.3856C29.6478 23.8248 29.6478 24.2697 29.6931 24.7349C29.7154 25.1651 29.7154 25.5962 29.6931 26.0263C29.7014 26.3353 29.682 26.6443 29.6351 26.9497C29.4774 27.5345 29.1035 28.0376 28.589 28.3572C28.1153 28.5986 27.5905 28.7226 27.0589 28.7186C26.5717 28.7127 26.0859 28.6675 25.6061 28.5832C25.2773 28.5026 24.934 28.5026 24.6053 28.5832C24.9036 28.2849 24.8943 27.5464 24.8848 26.7892C24.8827 26.6291 24.8807 26.4682 24.8816 26.3104C24.8501 25.8725 24.9096 25.4328 25.0562 25.0189C25.1292 24.8162 25.2484 24.6333 25.4044 24.4846C25.5604 24.336 25.7488 24.2257 25.9547 24.1624C26.0857 24.092 26.3159 24.0361 26.6022 23.9665C26.9202 23.8892 27.3074 23.7952 27.7048 23.6457C28.1018 23.4904 28.4842 23.3003 28.8476 23.0776C29.1943 22.8272 29.5013 22.5259 29.7583 22.1841ZM6.31787 6.75705L6.32003 6.75329C6.65546 6.4935 7.04184 6.30725 7.45403 6.20665C7.66679 6.15322 7.88249 6.11226 8.10002 6.08397H8.74381C9.25965 6.06801 9.73176 6.1181 10.0891 6.15601C10.2883 6.17714 10.4519 6.1945 10.5674 6.1945C10.7826 6.19205 10.9951 6.14553 11.1916 6.0578C11.3882 5.97008 11.5647 5.84301 11.7102 5.68444C11.964 5.33523 12.1643 4.95005 12.3042 4.54165C12.3343 4.4541 12.364 4.3661 12.3936 4.27838C12.6632 3.47974 12.9249 2.70453 13.3437 2.50088C13.0584 2.52626 12.6899 2.32758 12.2485 2.0896C11.9017 1.90259 11.5099 1.69132 11.078 1.54543C10.8275 1.45833 10.5705 1.39144 10.3093 1.34539C10.0481 1.30675 9.78258 1.30675 9.52133 1.34539C9.24404 1.39676 8.97754 1.49506 8.73331 1.63606C8.46218 1.81419 8.2294 2.04472 8.04863 2.3141C7.88834 2.57217 7.75219 2.84446 7.64192 3.12754L7.51822 3.50405L7.51812 3.50435C7.42947 3.77404 7.33314 4.0671 7.24128 4.34824C7.10423 4.76767 6.96332 5.20699 6.82793 5.63968C6.69353 6.02583 6.52349 6.39864 6.32003 6.75329L6.31732 6.75539L6.31787 6.75705ZM2.14623 14.5405C2.28272 14.9182 2.38861 15.3063 2.46287 15.701C2.51207 15.5079 2.57903 15.3192 2.66291 15.1384C2.76548 14.946 2.88203 14.7613 3.01161 14.5858C3.25884 14.2382 3.54989 13.924 3.87754 13.6508C4.25144 13.3403 4.6074 13.0975 4.8893 12.9052C5.08445 12.772 5.24411 12.6631 5.34968 12.5727C5.5249 12.4213 5.66389 12.2324 5.7564 12.0201C5.8434 11.8429 5.89181 11.6493 5.89842 11.452C5.87252 11.0092 5.77666 10.5734 5.61438 10.1606C5.53984 9.93308 5.45536 9.70893 5.37335 9.49131C5.29241 9.27655 5.21387 9.06814 5.14964 8.86915C5.02454 8.55854 5.00856 8.21467 5.10432 7.8938C4.8218 8.0888 4.4955 8.21104 4.1544 8.24968C3.67957 8.34094 3.21139 8.46389 2.75299 8.61771C2.20035 8.76388 1.71631 9.09889 1.38483 9.56461C1.05335 10.0303 0.895352 10.5974 0.938235 11.1674C1.08402 11.8851 1.31383 12.583 1.62291 13.2469C1.70308 13.4668 1.79489 13.6809 1.88438 13.8897C1.97995 14.1126 2.07289 14.3294 2.14623 14.5405Z" fill="#C5442D"/>
</svg>
