<svg width="38" height="39" viewBox="0 0 38 39" fill="none" xmlns="http://www.w3.org/2000/svg">
<path fill-rule="evenodd" clip-rule="evenodd" d="M18.0065 2.98201C17.6222 3.21584 17.2114 3.40303 16.7828 3.53964C17.7357 3.63429 18.6383 4.01265 19.3739 4.62578C19.77 4.95573 20.0935 5.30138 20.3537 5.5794L20.3538 5.57942L20.3538 5.57943C20.5617 5.80154 20.7291 5.98047 20.8609 6.07375C21.0485 6.22664 21.2654 6.33953 21.4982 6.40548C21.731 6.47144 21.9748 6.48907 22.2147 6.45727C22.6815 6.34158 23.128 6.15609 23.5394 5.90708C23.6656 5.83259 23.7913 5.75672 23.9156 5.68167C24.697 5.20988 25.4258 4.76991 25.9068 4.90087C25.6321 4.62938 25.4347 4.28953 25.335 3.91635C25.1394 3.41942 24.9118 2.93574 24.6534 2.46838C24.5037 2.21058 24.3292 1.968 24.1323 1.74408C23.918 1.5275 23.6742 1.34227 23.4081 1.19389C23.1328 1.04036 22.8344 0.932795 22.5245 0.87542C22.1622 0.861032 21.8006 0.917652 21.4601 1.04209C21.1328 1.14319 20.8173 1.27904 20.5189 1.4473C20.0988 1.66725 19.6904 1.9088 19.2952 2.17098L18.6509 2.56937L18.5591 2.63074C18.374 2.7546 18.1932 2.87562 18.0065 2.98201ZM27.4186 6.03037C28.3255 6.33388 29.2667 6.52348 30.2204 6.59481C31.0513 6.65458 31.8713 6.82011 32.6603 7.08738C33.2363 7.3671 33.6964 7.83945 33.9608 8.42264C34.2253 9.00583 34.2774 9.66313 34.1083 10.2807C34.0641 10.5567 34.0037 10.8298 33.9274 11.0986C33.9083 11.1559 33.8896 11.2129 33.8711 11.2692L33.871 11.2695L33.8708 11.2698C33.8053 11.4692 33.7428 11.6592 33.6795 11.8229C33.5104 12.1737 33.4458 12.5658 33.4937 12.9524C33.1341 12.5113 32.1154 12.3746 31.1251 12.2416L31.0246 12.2281C30.5428 12.1669 30.0765 12.0171 29.6491 11.7863C29.4389 11.665 29.2588 11.4977 29.1221 11.2972C28.9855 11.0966 28.8958 10.8677 28.8598 10.6277C28.8113 10.4882 28.8034 10.2625 28.7936 9.98292C28.78 9.59459 28.7628 9.10237 28.628 8.59298C28.4928 7.63627 28.0712 6.7429 27.4186 6.03037ZM34.7161 15.906C34.4049 15.5767 34.1439 15.2035 33.9416 14.7982H33.9391C33.9582 15.2764 33.9045 15.7549 33.7799 16.217C33.6296 16.6713 33.4361 17.1102 33.2018 17.5274C32.9743 17.9707 32.6872 18.3522 32.4561 18.6592C32.2756 18.899 32.1294 19.0934 32.0723 19.2363C31.9415 19.4421 31.8609 19.6758 31.837 19.9185C31.8131 20.1611 31.8466 20.406 31.9348 20.6334C32.1172 21.0858 32.3852 21.4988 32.7241 21.8497C32.8711 22.0318 33.0184 22.1995 33.1595 22.3603L33.1597 22.3604C33.3552 22.5831 33.539 22.7925 33.6944 23.0083C33.9444 23.2858 34.0992 23.636 34.1361 24.0077C34.3451 23.6943 34.6356 23.4439 34.9763 23.2834C35.1513 23.1842 35.3308 23.0713 35.515 22.9554L35.5152 22.9553L35.6498 22.8708C35.8817 22.7152 36.1041 22.5459 36.3158 22.3639C36.8467 21.9971 37.2314 21.4548 37.4021 20.8325C37.5729 20.2102 37.5189 19.5476 37.2496 18.9612C37.0847 18.6605 36.8907 18.3768 36.6702 18.1142L36.2434 17.5857L35.7223 17.0355C35.5374 16.824 35.3602 16.6269 35.1867 16.434C35.0278 16.2571 34.8719 16.0837 34.7161 15.906ZM5.82105 28.8801L5.82059 28.8797C5.72057 28.6768 5.63399 28.4674 5.56144 28.2531C5.51181 28.0144 5.48033 27.7722 5.46726 27.5288C5.42261 27.0451 5.44702 26.5576 5.53976 26.0808C5.62898 25.6105 5.72811 25.2196 5.81485 24.8862C5.90311 24.6228 5.97329 24.3537 6.02489 24.0808C6.06892 23.8245 6.05151 23.5614 5.97409 23.3131C5.92849 23.0963 5.82897 22.8945 5.68474 22.7264C5.3522 22.3737 4.96623 22.0755 4.54098 21.8428C4.46772 21.8044 4.39346 21.7658 4.31874 21.7269L4.31788 21.7264L4.31575 21.7253L4.31529 21.7251L4.31509 21.725L4.31498 21.7249L4.31496 21.7249L4.31493 21.7249C3.94032 21.53 3.55432 21.3292 3.22312 21.1185C2.89469 20.9477 2.63789 20.6654 2.49883 20.3224C2.46531 20.6572 2.1681 21.0335 1.80868 21.4885C1.54355 21.8241 1.24458 22.2027 0.992611 22.639C0.681004 23.1474 0.510945 23.7299 0.50004 24.3261C0.498114 24.6648 0.565876 25.0002 0.699113 25.3116C0.83235 25.6229 1.02821 25.9035 1.27452 26.1359C1.91545 26.6532 2.61831 27.0886 3.36687 27.4321C4.24093 27.8124 5.06499 28.2986 5.82059 28.8797L5.82229 28.8832L5.82105 28.8801ZM14.9439 34.9112C14.4911 34.8931 14.0379 34.9368 13.5969 35.0413C13.1192 35.1138 12.6124 35.2272 12.1099 35.3511C11.3117 35.5577 10.4938 35.679 9.66995 35.7129C8.99357 35.651 8.36658 35.3324 7.91776 34.8226C7.55253 34.3517 7.30429 33.8009 7.19347 33.2154C7.11982 32.7291 7.10018 32.2668 7.08272 31.8558C7.05728 31.2571 7.03647 30.7673 6.86013 30.4712C7.18839 30.7401 7.89637 30.6094 8.64548 30.4711L8.6455 30.4711C8.90454 30.4233 9.16849 30.3745 9.42336 30.3411C10.4153 30.211 11.3707 30.0877 12.0083 31.0654C12.0899 31.2084 12.1877 31.4212 12.3091 31.6853C12.4643 32.0229 12.6582 32.4445 12.9061 32.9118C13.1595 33.3129 13.4479 33.6909 13.7679 34.0413C14.0978 34.4069 14.4977 34.7027 14.9439 34.9112ZM24.8411 34.6069C25.1206 34.2493 25.4415 33.9261 25.7971 33.6441C24.8615 33.8579 23.8834 33.7875 22.9879 33.4421C22.503 33.2456 22.0891 33.0514 21.7559 32.8951L21.7558 32.895L21.7557 32.895L21.7557 32.8949L21.7556 32.8949C21.487 32.7688 21.2709 32.6675 21.1124 32.6094C20.8851 32.5239 20.6422 32.4881 20.3999 32.5044C20.1577 32.5206 19.9217 32.5885 19.7078 32.7036C19.2906 32.9598 18.9287 33.2969 18.6434 33.6949C18.4949 33.8629 18.3469 34.0438 18.2 34.2232C17.695 34.84 17.2041 35.4397 16.7611 35.4397C17.0976 35.5293 17.424 35.8947 17.8201 36.338L17.8201 36.338L17.8202 36.3381C18.0972 36.6482 18.4084 36.9964 18.7809 37.3151C19.2355 37.6934 19.7717 37.9611 20.3472 38.0971C21.0214 38.1986 21.7088 38.0378 22.268 37.6479C22.8795 37.0949 23.4306 36.4785 23.9117 35.8089C24.2215 35.3888 24.5313 34.9688 24.8411 34.6069ZM33.3047 25.7091C33.1933 26.1488 33.1515 26.6033 33.1808 27.056V27.0561C33.1808 27.5487 33.1808 28.0474 33.2316 28.5691C33.2565 29.0514 33.2565 29.5347 33.2316 30.017C33.2409 30.3634 33.2191 30.7099 33.1665 31.0524C32.9897 31.708 32.5705 32.2721 31.9936 32.6305C31.4625 32.9011 30.8741 33.0401 30.278 33.0357C29.7318 33.029 29.1871 32.9783 28.6491 32.8839C28.2806 32.7934 27.8956 32.7934 27.527 32.8839C27.8615 32.5494 27.8511 31.7214 27.8404 30.8724V30.8724C27.8381 30.6929 27.8359 30.5124 27.8368 30.3355C27.8015 29.8445 27.8682 29.3515 28.0326 28.8875C28.1145 28.6603 28.2481 28.4552 28.423 28.2885C28.5979 28.1218 28.8091 27.9981 29.0401 27.9272C29.1869 27.8482 29.4449 27.7855 29.766 27.7075C30.1225 27.6209 30.5567 27.5154 31.0023 27.3479C31.4473 27.1737 31.8761 26.9605 32.2836 26.7109C32.6723 26.4301 33.0165 26.0924 33.3047 25.7091ZM7.02303 8.41207L7.02545 8.40786C7.40153 8.11659 7.83474 7.90775 8.2969 7.79496C8.53545 7.73506 8.77729 7.68913 9.02119 7.65742H9.74301C10.3214 7.63952 10.8507 7.69567 11.2513 7.73818L11.2514 7.73818C11.4747 7.76188 11.6581 7.78133 11.7876 7.78133C12.029 7.77859 12.2671 7.72643 12.4875 7.62807C12.7079 7.52972 12.9058 7.38725 13.069 7.20946C13.3536 6.81792 13.5781 6.38605 13.735 5.92815C13.7687 5.83 13.802 5.73135 13.8352 5.63302L13.8352 5.63297C14.1375 4.73753 14.4309 3.86835 14.9004 3.64002C14.5806 3.66847 14.1674 3.44571 13.6725 3.17888C13.2837 2.96921 12.8443 2.73233 12.3601 2.56875C12.0793 2.4711 11.7911 2.3961 11.4983 2.34446C11.2054 2.30114 10.9077 2.30114 10.6148 2.34446C10.3039 2.40206 10.0051 2.51228 9.73124 2.67037C9.42725 2.87009 9.16625 3.12857 8.96357 3.4306C8.78385 3.71994 8.63119 4.02524 8.50756 4.34263L8.36887 4.76477C8.26944 5.06725 8.16139 5.39596 8.05836 5.7113C7.9047 6.18156 7.74671 6.67413 7.59491 7.15927C7.44421 7.59223 7.25357 8.01022 7.02545 8.40786L7.02241 8.41021L7.02303 8.41207ZM2.34579 17.139C2.49882 17.5624 2.61755 17.9976 2.70082 18.4401C2.75598 18.2236 2.83106 18.012 2.92511 17.8093C3.04011 17.5935 3.17078 17.3864 3.31607 17.1898C3.59327 16.8 3.91959 16.4477 4.28696 16.1414C4.70618 15.7932 5.10528 15.521 5.42135 15.3054C5.64015 15.1561 5.81917 15.034 5.93753 14.9326C6.13399 14.7628 6.28983 14.5511 6.39355 14.313C6.4911 14.1144 6.54537 13.8973 6.55278 13.6761C6.52375 13.1796 6.41626 12.6909 6.23432 12.2281C6.15074 11.973 6.05603 11.7217 5.96407 11.4777C5.87332 11.2369 5.78526 11.0033 5.71324 10.7801C5.57298 10.4319 5.55507 10.0463 5.66244 9.68656C5.34566 9.9052 4.97982 10.0423 4.59737 10.0856C4.06499 10.1879 3.54006 10.3258 3.0261 10.4982C2.40647 10.6621 1.86376 11.0377 1.49211 11.5599C1.12045 12.0821 0.943297 12.7179 0.991377 13.357C1.15483 14.1616 1.41249 14.9442 1.75904 15.6885C1.84893 15.9351 1.95186 16.1752 2.05221 16.4092C2.15936 16.6591 2.26356 16.9022 2.34579 17.139Z" fill="#C5B2A3"/>
</svg>
