<svg width="265" height="344" viewBox="0 0 265 344" fill="none" xmlns="http://www.w3.org/2000/svg">
<path opacity="0.05" fill-rule="evenodd" clip-rule="evenodd" d="M161.655 19.4725C158.106 21.6317 154.313 23.3602 150.356 24.6217C159.155 25.4957 167.489 28.9894 174.282 34.6511C177.939 37.6979 180.927 40.8896 183.33 43.4569C185.249 45.5079 186.796 47.1603 188.013 48.0217C189.745 49.4334 191.747 50.4759 193.897 51.0849C196.047 51.694 198.299 51.8567 200.514 51.5632C204.824 50.4948 208.947 48.782 212.746 46.4827C213.911 45.7948 215.072 45.0943 216.219 44.4013L216.22 44.4012C223.435 40.0447 230.165 35.982 234.607 37.1913C232.07 34.6844 230.247 31.5462 229.326 28.1002C227.521 23.5115 225.418 19.0452 223.033 14.7296C221.65 12.3491 220.039 10.1091 218.221 8.04144C216.242 6.04152 213.991 4.33113 211.533 2.96095C208.992 1.54332 206.236 0.55002 203.375 0.0202199C200.029 -0.112634 196.69 0.410195 193.545 1.55925C190.523 2.49286 187.61 3.74724 184.855 5.30095C180.975 7.33197 177.204 9.56245 173.555 11.9834L167.605 15.6622C167.321 15.8513 167.039 16.0402 166.758 16.2285L166.758 16.2287L166.757 16.2289C165.049 17.3727 163.379 18.4901 161.655 19.4725ZM248.567 47.6214C256.942 50.424 265.632 52.1748 274.439 52.8335C282.112 53.3854 289.683 54.9139 296.969 57.3819C302.288 59.9648 306.536 64.3265 308.978 69.7117C311.42 75.0969 311.901 81.1664 310.34 86.8693C309.932 89.4173 309.374 91.9391 308.669 94.4214C308.564 94.7357 308.461 95.0489 308.358 95.3601L308.149 95.9979L308.148 95.9986C307.542 97.8409 306.965 99.597 306.38 101.11C304.818 104.349 304.222 107.97 304.664 111.539C301.344 107.467 291.938 106.204 282.793 104.976L281.865 104.851C277.416 104.286 273.11 102.903 269.164 100.772C267.223 99.6512 265.559 98.1073 264.297 96.255C263.035 94.4027 262.207 92.2897 261.875 90.0732C261.427 88.7849 261.354 86.7007 261.264 84.1193V84.119C261.138 80.5332 260.979 75.9882 259.735 71.2846C258.486 62.4503 254.593 54.2009 248.567 47.6214ZM315.952 138.813C313.078 135.773 310.669 132.326 308.8 128.583H308.777C308.953 133 308.457 137.417 307.307 141.685C305.919 145.88 304.132 149.932 301.969 153.785C299.868 157.878 297.217 161.401 295.083 164.236C293.416 166.45 292.066 168.245 291.539 169.565C290.331 171.465 289.587 173.623 289.367 175.864C289.146 178.105 289.455 180.366 290.269 182.466C291.954 186.643 294.429 190.457 297.558 193.697C298.915 195.378 300.274 196.926 301.577 198.411L301.578 198.412L301.58 198.413C303.385 200.469 305.082 202.403 306.517 204.396C308.826 206.958 310.255 210.192 310.596 213.624C312.526 210.731 315.208 208.418 318.355 206.936C319.972 206.019 321.63 204.976 323.332 203.905C323.743 203.646 324.157 203.386 324.574 203.126C326.715 201.689 328.768 200.126 330.724 198.446C335.626 195.058 339.178 190.051 340.755 184.304C342.331 178.558 341.833 172.44 339.346 167.024C337.824 164.248 336.032 161.629 333.996 159.203L330.055 154.323L325.243 149.243C323.535 147.29 321.899 145.47 320.298 143.688C318.83 142.055 317.391 140.454 315.952 138.813ZM49.1346 258.616L49.1304 258.613C48.2068 256.739 47.4074 254.805 46.7374 252.826C46.2791 250.622 45.9884 248.386 45.8678 246.138C45.4555 241.672 45.6809 237.17 46.5372 232.767C47.3611 228.425 48.2765 224.815 49.0774 221.737C49.8924 219.305 50.5405 216.82 51.017 214.299C51.4235 211.932 51.2627 209.503 50.5478 207.21C50.1268 205.209 49.2078 203.345 47.876 201.792C44.8053 198.536 41.2412 195.782 37.3145 193.634C36.6319 193.276 35.94 192.916 35.2438 192.554L35.2434 192.554L35.2314 192.547L35.2287 192.546L35.2274 192.545C31.7682 190.746 28.2037 188.891 25.1454 186.946C22.1126 185.369 19.7413 182.762 18.4572 179.594C18.1477 182.686 15.4033 186.16 12.0843 190.362L12.0842 190.362C9.63612 193.462 6.87543 196.957 4.54878 200.986C1.67139 205.681 0.101069 211.059 0.00036876 216.565C-0.0174164 219.692 0.608304 222.789 1.83862 225.664C3.06893 228.539 4.87752 231.13 7.15196 233.277C13.0703 238.053 19.5605 242.073 26.4727 245.245C34.5438 248.757 42.1532 253.247 49.1304 258.613L49.1461 258.645L49.1346 258.616ZM133.375 314.307C129.193 314.14 125.009 314.544 120.937 315.508C116.525 316.178 111.846 317.225 107.206 318.369C99.8349 320.277 92.2824 321.397 84.6752 321.71C78.4294 321.138 72.6398 318.196 68.4954 313.489C65.1229 309.141 62.8306 304.054 61.8073 298.648C61.1272 294.157 60.9458 289.888 60.7846 286.093C60.5497 280.565 60.3575 276.042 58.7292 273.308C61.7603 275.791 68.2977 274.584 75.2149 273.307L75.2153 273.307C77.6072 272.865 80.0446 272.415 82.3981 272.107C91.5579 270.905 100.38 269.767 106.267 278.795C107.021 280.116 107.924 282.08 109.045 284.519C110.479 287.637 112.268 291.53 114.557 295.844C116.898 299.548 119.561 303.039 122.516 306.274C125.562 309.65 129.255 312.382 133.375 314.307ZM224.766 311.498C227.347 308.195 230.31 305.211 233.594 302.607C224.954 304.581 215.922 303.931 207.654 300.742C203.176 298.927 199.353 297.133 196.277 295.69C193.795 294.525 191.799 293.589 190.336 293.052C188.237 292.263 185.993 291.933 183.756 292.083C181.519 292.233 179.34 292.86 177.365 293.922C173.512 296.289 170.171 299.401 167.536 303.076C166.166 304.627 164.799 306.297 163.442 307.954L163.442 307.954C158.779 313.65 154.246 319.187 150.155 319.187C153.262 320.015 156.276 323.389 159.934 327.482C162.492 330.346 165.366 333.562 168.806 336.505C173.004 339.999 177.955 342.47 183.27 343.726C189.495 344.663 195.842 343.179 201.006 339.578C206.653 334.472 211.741 328.779 216.184 322.597C219.045 318.718 221.905 314.839 224.766 311.498ZM302.919 229.335C301.891 233.395 301.505 237.592 301.775 241.773V241.773C301.775 246.322 301.775 250.927 302.244 255.744C302.474 260.198 302.474 264.661 302.244 269.115C302.33 272.313 302.129 275.512 301.643 278.675C300.011 284.729 296.14 289.938 290.813 293.247C285.909 295.746 280.475 297.03 274.971 296.989C269.927 296.927 264.897 296.459 259.93 295.587C256.526 294.752 252.972 294.752 249.568 295.587C252.657 292.498 252.561 284.853 252.462 277.013C252.441 275.355 252.42 273.689 252.429 272.055C252.103 267.521 252.719 262.969 254.237 258.685C254.993 256.586 256.227 254.692 257.842 253.153C259.456 251.614 261.407 250.471 263.54 249.817C264.895 249.087 267.278 248.509 270.243 247.788C273.535 246.989 277.544 246.015 281.659 244.467C285.768 242.859 289.728 240.891 293.491 238.586C297.08 235.993 300.258 232.874 302.919 229.335ZM60.2337 69.6138L60.2561 69.5749C63.7288 66.8853 67.7291 64.9569 71.9966 63.9154C74.1994 63.3623 76.4326 62.9382 78.6848 62.6453H85.3501C90.6907 62.48 95.5786 62.9986 99.278 63.391C101.341 63.6099 103.034 63.7895 104.23 63.7895C106.459 63.7642 108.658 63.2826 110.693 62.3743C112.728 61.4661 114.555 60.1505 116.062 58.5088C118.69 54.8934 120.763 50.9055 122.212 46.6772C122.523 45.7717 122.83 44.8615 123.136 43.9543L123.137 43.9515L123.137 43.9514C125.929 35.683 128.639 27.657 132.974 25.5486C130.02 25.8113 126.205 23.7543 121.635 21.2904C118.045 19.3543 113.988 17.167 109.517 15.6565C106.924 14.7548 104.262 14.0622 101.558 13.5854C98.8536 13.1853 96.1047 13.1853 93.3999 13.5854C90.5291 14.1173 87.77 15.135 85.2414 16.5948C82.4343 18.439 80.0242 20.8258 78.1527 23.6148C76.4931 26.2866 75.0835 29.1057 73.9419 32.0365C73.5446 33.2473 73.1132 34.5597 72.6626 35.9305L72.6609 35.9354C71.7429 38.7283 70.7453 41.7633 69.794 44.6748C68.3751 49.0172 66.9162 53.5656 65.5144 58.0454C64.1229 62.0433 62.3625 65.9031 60.2561 69.5749L60.228 69.5966L60.2337 69.6138ZM17.044 150.198C18.4571 154.108 19.5534 158.126 20.3223 162.213C20.8317 160.213 21.525 158.26 22.3934 156.388C23.4553 154.396 24.662 152.483 26.0035 150.667C28.5632 147.068 31.5765 143.814 34.9688 140.987C38.8398 137.771 42.5251 135.258 45.4437 133.267C47.4642 131.888 49.1173 130.761 50.2102 129.824C52.0243 128.257 53.4633 126.301 54.4211 124.103C55.3219 122.269 55.823 120.264 55.8915 118.222C55.6234 113.638 54.6308 109.125 52.9507 104.851C52.179 102.496 51.3044 100.175 50.4553 97.922C49.6173 95.6984 48.8041 93.5408 48.1391 91.4805C46.844 88.2647 46.6786 84.7045 47.67 81.3825C44.7449 83.4013 41.3667 84.6669 37.8351 85.067C32.9191 86.0118 28.0719 87.2848 23.326 88.8773C17.6044 90.3907 12.593 93.8591 9.16109 98.6809C5.72921 103.503 4.09337 109.374 4.53734 115.275C6.04666 122.705 8.42594 129.931 11.626 136.804C12.456 139.081 13.4065 141.298 14.3331 143.46C15.3225 145.767 16.2847 148.012 17.044 150.198Z" fill="#4762B3"/>
</svg>
