<svg width="334" height="337" viewBox="0 0 334 337" fill="none" xmlns="http://www.w3.org/2000/svg">
<path opacity="0.04" fill-rule="evenodd" clip-rule="evenodd" d="M157.865 19.5235C154.401 21.6309 150.699 23.3181 146.836 24.5493C155.424 25.4024 163.559 28.8124 170.189 34.3384C173.759 37.3122 176.675 40.4275 179.02 42.9332C180.894 44.9352 182.403 46.548 183.591 47.3887C185.282 48.7666 187.236 49.7841 189.334 50.3786C191.433 50.973 193.631 51.1318 195.793 50.8453C199.999 49.8026 204.024 48.1308 207.732 45.8866C208.869 45.2154 210.001 44.5319 211.121 43.8557L211.122 43.855C218.165 39.6029 224.733 35.6375 229.069 36.8178C226.592 34.3709 224.813 31.3079 223.915 27.9445C222.152 23.4658 220.1 19.1065 217.772 14.8942C216.422 12.5708 214.85 10.3844 213.076 8.3663C211.144 6.4143 208.946 4.74489 206.548 3.40753C204.067 2.02387 201.378 1.05436 198.585 0.537253C195.319 0.407581 192.06 0.917885 188.991 2.03941C186.041 2.95065 183.198 4.17498 180.509 5.69147C176.722 7.67383 173.041 9.85087 169.48 12.2138L163.672 15.8045C163.395 15.9892 163.119 16.1737 162.845 16.3575C161.177 17.4739 159.548 18.5646 157.865 19.5235ZM242.694 46.9979C250.868 49.7333 259.351 51.4422 267.946 52.0851C275.435 52.6238 282.825 54.1156 289.937 56.5245C295.128 59.0455 299.275 63.3027 301.658 68.5589C304.041 73.8151 304.512 79.7392 302.987 85.3055C302.589 87.7925 302.045 90.2538 301.356 92.6766C301.185 93.1937 301.016 93.7076 300.849 94.2147L300.848 94.2177C300.257 96.0153 299.693 97.7287 299.123 99.2046C297.598 102.367 297.016 105.901 297.448 109.385C294.207 105.409 285.026 104.177 276.1 102.978L275.195 102.857C270.852 102.305 266.649 100.955 262.798 98.8751C260.903 97.7812 259.28 96.2742 258.048 94.4663C256.816 92.6584 256.008 90.596 255.683 88.4326C255.246 87.1752 255.175 85.1409 255.087 82.6214V82.6212C254.964 79.1213 254.809 74.6851 253.595 70.0941C252.376 61.4715 248.576 53.4197 242.694 46.9979ZM308.465 136.005C305.66 133.037 303.308 129.673 301.484 126.02H301.462C301.634 130.331 301.15 134.642 300.027 138.808C298.673 142.903 296.928 146.858 294.817 150.618C292.766 154.613 290.178 158.052 288.096 160.819C286.469 162.98 285.151 164.732 284.637 166.02C283.458 167.875 282.732 169.981 282.517 172.168C282.301 174.355 282.603 176.563 283.397 178.612C285.042 182.689 287.457 186.411 290.511 189.574C291.837 191.215 293.164 192.727 294.437 194.177L294.437 194.177C296.199 196.184 297.856 198.071 299.256 200.016C301.51 202.517 302.905 205.673 303.238 209.024C305.121 206.199 307.739 203.942 310.81 202.496C312.388 201.601 314.005 200.584 315.666 199.539L315.666 199.539L315.667 199.538L315.691 199.523L316.137 199.243L316.337 199.117L316.541 198.989L316.88 198.777C318.97 197.374 320.974 195.849 322.883 194.209C327.668 190.902 331.134 186.015 332.674 180.406C334.213 174.797 333.726 168.826 331.298 163.54C329.813 160.831 328.064 158.274 326.077 155.907L322.23 151.143L317.533 146.185C315.867 144.279 314.27 142.503 312.707 140.764C311.274 139.17 309.869 137.607 308.465 136.005ZM48.0401 252.938L48.0359 252.934C47.1344 251.105 46.3542 249.218 45.7003 247.286C45.253 245.135 44.9692 242.953 44.8515 240.758C44.449 236.399 44.669 232.005 45.5048 227.708C46.309 223.47 47.2024 219.946 47.9842 216.942C48.7797 214.568 49.4122 212.142 49.8773 209.682C50.2741 207.372 50.1172 205.001 49.4194 202.764C49.0084 200.81 48.1115 198.991 46.8115 197.475C43.8145 194.297 40.3358 191.609 36.5031 189.512C35.8423 189.166 35.1725 188.817 34.4985 188.466L34.4742 188.454L34.466 188.449C31.0897 186.693 27.6106 184.883 24.6255 182.984C21.6654 181.445 19.3509 178.901 18.0976 175.809C17.7955 178.826 15.1168 182.217 11.8774 186.319L11.8773 186.319C9.48785 189.344 6.7933 192.755 4.52238 196.688C1.71393 201.27 0.181228 206.52 0.0829405 211.894C0.0655814 214.946 0.676311 217.969 1.87715 220.775C3.07798 223.581 4.84325 226.11 7.06319 228.205C12.8398 232.867 19.1745 236.791 25.921 239.887C33.7987 243.315 41.2259 247.697 48.0359 252.934L48.0512 252.965L48.0401 252.938ZM130.262 307.294C126.181 307.131 122.096 307.526 118.122 308.467C113.816 309.12 109.249 310.142 104.72 311.259C97.5257 313.122 90.1541 314.215 82.7291 314.52C76.633 313.962 70.9821 311.09 66.937 306.496C63.6452 302.252 61.4079 297.287 60.4091 292.01C59.7453 287.628 59.5683 283.461 59.4109 279.756C59.1816 274.361 58.9941 269.947 57.4048 267.278C60.3633 269.701 66.7443 268.523 73.496 267.277C75.8306 266.846 78.2095 266.406 80.5066 266.105C89.4469 264.932 98.0578 263.821 103.804 272.633C104.539 273.922 105.421 275.84 106.515 278.22C107.914 281.263 109.661 285.063 111.895 289.274C114.18 292.889 116.779 296.296 119.663 299.454C122.637 302.749 126.241 305.415 130.262 307.294ZM219.464 304.552C221.982 301.329 224.875 298.416 228.08 295.875C219.648 297.801 210.832 297.167 202.761 294.054C198.391 292.283 194.66 290.532 191.657 289.123L191.656 289.123C189.234 287.986 187.286 287.072 185.858 286.549C183.81 285.779 181.62 285.456 179.436 285.603C177.253 285.749 175.126 286.361 173.199 287.398C169.438 289.708 166.176 292.745 163.605 296.332C162.267 297.846 160.933 299.477 159.609 301.094C155.058 306.653 150.633 312.058 146.64 312.058C149.673 312.866 152.615 316.158 156.185 320.154C158.682 322.949 161.487 326.088 164.845 328.961C168.942 332.37 173.774 334.783 178.962 336.008C185.037 336.923 191.233 335.474 196.273 331.96C201.785 326.976 206.751 321.42 211.088 315.386C213.88 311.6 216.672 307.814 219.464 304.552ZM295.744 224.358C294.741 228.321 294.364 232.417 294.628 236.498V236.499C294.628 240.938 294.628 245.433 295.086 250.134C295.31 254.481 295.31 258.837 295.086 263.185C295.17 266.306 294.973 269.429 294.499 272.516C292.906 278.425 289.127 283.509 283.928 286.739C279.141 289.178 273.838 290.431 268.466 290.391C263.543 290.331 258.634 289.874 253.785 289.023C250.463 288.208 246.994 288.208 243.672 289.023C246.686 286.008 246.592 278.546 246.496 270.894C246.476 269.276 246.455 267.649 246.464 266.055C246.146 261.63 246.747 257.186 248.229 253.005C248.966 250.956 250.171 249.108 251.747 247.605C253.323 246.103 255.227 244.988 257.308 244.349C258.631 243.637 260.958 243.072 263.851 242.369C267.064 241.589 270.977 240.638 274.994 239.128C279.004 237.558 282.869 235.637 286.542 233.387C290.045 230.856 293.147 227.812 295.744 224.358ZM58.8732 68.4634L58.895 68.4254C62.2846 65.8003 66.189 63.9181 70.3543 62.9016C72.5043 62.3617 74.684 61.9477 76.8823 61.6619H83.3879C88.6006 61.5005 93.3714 62.0067 96.9821 62.3898C98.9955 62.6034 100.648 62.7787 101.816 62.7787C103.991 62.754 106.137 62.2839 108.124 61.3974C110.11 60.5109 111.893 59.2269 113.364 57.6245C115.929 54.0957 117.952 50.2033 119.367 46.0764C119.67 45.1922 119.97 44.3036 120.269 43.4178L120.27 43.4159C122.994 35.3456 125.639 27.5118 129.871 25.4539C126.988 25.7103 123.264 23.7026 118.804 21.2978C115.299 19.4081 111.339 17.2731 106.976 15.7988C104.444 14.9187 101.847 14.2427 99.2079 13.7774C96.5679 13.3869 93.8848 13.3869 91.2448 13.7774C88.4428 14.2965 85.7498 15.2898 83.2818 16.7146C80.5419 18.5147 78.1896 20.8443 76.3629 23.5665C74.7431 26.1742 73.3673 28.9259 72.253 31.7864C71.8657 32.9664 71.4453 34.2454 71.0062 35.5812L71.0027 35.5919C70.1067 38.3178 69.133 41.2801 68.2044 44.1219C66.8195 48.3603 65.3956 52.7997 64.0274 57.1722C62.6693 61.0743 60.951 64.8416 58.895 68.4254L58.8676 68.4467L58.8732 68.4634ZM16.7183 147.117C18.0975 150.934 19.1676 154.855 19.9181 158.844C20.4152 156.892 21.0919 154.986 21.9395 153.159C22.976 151.214 24.1537 149.348 25.4632 147.575C27.9615 144.062 30.9026 140.887 34.2136 138.126C37.9919 134.988 41.5889 132.535 44.4376 130.591C46.4097 129.246 48.0231 128.145 49.0899 127.232C50.8606 125.701 52.2651 123.793 53.1999 121.647C54.0791 119.857 54.5682 117.9 54.635 115.907C54.3734 111.433 53.4046 107.028 51.7647 102.857C51.0115 100.558 50.1579 98.2926 49.3291 96.0935C48.5112 93.9232 47.7175 91.8173 47.0684 89.8064C45.8043 86.6676 45.6428 83.1927 46.6105 79.9502C43.7555 81.9208 40.4582 83.156 37.0113 83.5465C32.2131 84.4687 27.482 85.7111 22.8498 87.2655C17.2652 88.7426 12.3739 92.128 9.02422 96.8342C5.67456 101.54 4.07791 107.271 4.51124 113.031C5.9844 120.283 8.30668 127.336 11.4301 134.044C12.2402 136.267 13.1679 138.431 14.0723 140.54C15.038 142.793 15.9772 144.983 16.7183 147.117Z" fill="white"/>
</svg>
