<svg width="704" height="708" viewBox="0 0 704 708" fill="none" xmlns="http://www.w3.org/2000/svg">
<path opacity="0.02" fill-rule="evenodd" clip-rule="evenodd" d="M333.146 40.4095C325.85 44.8488 318.051 48.4029 309.914 50.9965C328.006 52.7935 345.142 59.9768 359.108 71.6175C366.628 77.8819 372.77 84.4444 377.71 89.7227L377.711 89.7229L377.711 89.7235C381.658 93.9403 384.837 97.3374 387.34 99.1083C390.901 102.011 395.018 104.154 399.438 105.406C403.858 106.659 408.488 106.993 413.042 106.39C421.904 104.193 430.382 100.672 438.192 95.9439C440.585 94.5314 442.968 93.0929 445.325 91.6697L445.332 91.6654L445.334 91.6644C460.17 82.7072 474.006 74.354 483.14 76.8404C477.923 71.6859 474.175 65.2337 472.282 58.1485C468.57 48.714 464.248 39.5309 459.343 30.6578C456.5 25.7633 453.187 21.1577 449.45 16.9065C445.381 12.7945 440.751 9.27787 435.699 6.4607C430.473 3.54597 424.807 1.50368 418.924 0.414376C412.046 0.14122 405.18 1.21619 398.715 3.57871C392.501 5.49827 386.511 8.07735 380.846 11.2719C372.87 15.4478 365.116 20.0338 357.614 25.0114L345.38 32.5752C344.796 32.9643 344.216 33.3529 343.637 33.7401L343.637 33.7403C340.124 36.092 336.691 38.3895 333.146 40.4095ZM511.842 98.285C529.061 104.047 546.929 107.647 565.036 109.001C580.812 110.136 596.379 113.279 611.36 118.353C622.296 123.664 631.031 132.632 636.051 143.704C641.072 154.776 642.062 167.256 638.851 178.981C638.012 184.22 636.865 189.405 635.416 194.509C635.054 195.598 634.698 196.68 634.346 197.748C633.1 201.537 631.913 205.149 630.71 208.26C627.498 214.921 626.273 222.366 627.181 229.704C620.355 221.33 601.015 218.734 582.213 216.209C581.576 216.124 580.94 216.039 580.305 215.953C571.157 214.791 562.304 211.948 554.19 207.566C550.2 205.261 546.78 202.087 544.185 198.279C541.59 194.47 539.888 190.126 539.204 185.569C538.283 182.92 538.133 178.634 537.947 173.327V173.326C537.689 165.954 537.362 156.609 534.804 146.938C532.237 128.774 524.232 111.813 511.842 98.285ZM650.389 285.78C644.482 279.529 639.527 272.442 635.685 264.747H635.638C636 273.828 634.981 282.911 632.615 291.685C629.763 300.311 626.087 308.642 621.64 316.564C617.32 324.98 611.869 332.223 607.482 338.052C604.056 342.604 601.279 346.294 600.195 349.008C597.713 352.915 596.182 357.352 595.729 361.96C595.275 366.567 595.911 371.217 597.584 375.534C601.048 384.123 606.137 391.963 612.57 398.625C615.363 402.083 618.159 405.268 620.84 408.322C624.551 412.549 628.041 416.524 630.992 420.622C635.738 425.891 638.677 432.54 639.379 439.597C643.346 433.647 648.861 428.893 655.33 425.845C658.655 423.96 662.063 421.816 665.562 419.615C666.408 419.083 667.26 418.547 668.117 418.011C672.519 415.057 676.742 411.844 680.762 408.389C690.842 401.423 698.144 391.129 701.386 379.314C704.628 367.498 703.602 354.919 698.489 343.785C695.359 338.077 691.676 332.691 687.491 327.704L679.386 317.67L669.493 307.224C665.983 303.211 662.62 299.469 659.327 295.806L659.324 295.804C656.307 292.446 653.348 289.155 650.389 285.78ZM101.798 532.103L101.789 532.096C99.8899 528.242 98.2463 524.268 96.8688 520.198C95.9265 515.666 95.3288 511.069 95.0808 506.447C94.2331 497.265 94.6965 488.008 96.4571 478.956C98.151 470.028 100.033 462.605 101.68 456.277C103.356 451.276 104.688 446.167 105.668 440.984C106.504 436.118 106.173 431.123 104.703 426.41C103.837 422.294 101.948 418.462 99.2097 415.27C92.8963 408.574 85.5683 402.913 77.4947 398.495C76.0806 397.754 74.6472 397.008 73.2048 396.258L73.2029 396.257C66.0908 392.556 58.7622 388.744 52.4742 384.744C46.2387 381.501 41.3632 376.142 38.7229 369.628C38.0866 375.985 32.4439 383.129 25.62 391.768L25.6197 391.768C20.5863 398.141 14.9102 405.327 10.1264 413.611C4.21034 423.264 0.981669 434.323 0.774623 445.643C0.738056 452.072 2.02457 458.441 4.55417 464.352C7.08376 470.263 10.8023 475.59 15.4787 480.003C27.6472 489.823 40.9915 498.09 55.2033 504.612C71.7979 511.833 87.4434 521.063 101.789 532.096L101.821 532.162L101.798 532.103ZM275 646.607C266.403 646.263 257.799 647.094 249.427 649.077C240.357 650.453 230.735 652.606 221.195 654.958C206.041 658.882 190.512 661.185 174.871 661.828C162.03 660.652 150.126 654.603 141.605 644.924C134.67 635.985 129.958 625.527 127.853 614.41C126.455 605.178 126.082 596.401 125.751 588.597C125.268 577.231 124.873 567.933 121.525 562.311C127.757 567.416 141.199 564.934 155.421 562.308L155.423 562.308C160.341 561.4 165.351 560.475 170.189 559.841C189.022 557.37 207.161 555.029 219.266 573.592C220.815 576.307 222.672 580.346 224.977 585.361C227.924 591.771 231.605 599.775 236.311 608.646C241.123 616.262 246.599 623.438 252.674 630.091C258.938 637.033 266.529 642.648 275 646.607ZM462.907 640.831C468.212 634.041 474.305 627.904 481.057 622.551C463.294 626.609 444.723 625.274 427.723 618.716C418.516 614.985 410.657 611.297 404.331 608.329L404.33 608.329L404.33 608.328C399.228 605.935 395.124 604.009 392.115 602.906C387.8 601.284 383.188 600.604 378.588 600.913C373.988 601.221 369.508 602.51 365.448 604.694C357.526 609.56 350.655 615.959 345.238 623.515C342.421 626.704 339.61 630.138 336.821 633.544L336.82 633.546C327.233 645.255 317.912 656.641 309.502 656.641C315.89 658.343 322.087 665.279 329.607 673.695C334.868 679.583 340.776 686.196 347.85 692.248C356.481 699.43 366.66 704.512 377.587 707.093C390.386 709.021 403.437 705.969 414.054 698.565C425.665 688.067 436.126 676.363 445.262 663.652C451.143 655.676 457.025 647.701 462.907 640.831ZM623.594 471.898C621.479 480.248 620.685 488.877 621.241 497.472V497.475C621.241 506.826 621.241 516.294 622.206 526.198C622.679 535.355 622.679 544.531 622.206 553.688C622.383 560.264 621.97 566.843 620.971 573.345C617.614 585.793 609.655 596.502 598.703 603.306C588.619 608.445 577.448 611.083 566.13 610.999C555.761 610.873 545.419 609.909 535.205 608.117C528.207 606.4 520.899 606.4 513.901 608.117C520.252 601.767 520.054 586.047 519.851 569.928V569.925V569.922V569.918V569.915V569.912C519.808 566.509 519.765 563.088 519.783 559.735C519.113 550.413 520.379 541.053 523.5 532.244C525.055 527.929 527.592 524.035 530.912 520.87C534.232 517.706 538.243 515.357 542.627 514.011C545.414 512.511 550.314 511.321 556.41 509.84L556.41 509.84C563.179 508.196 571.421 506.193 579.882 503.012C588.331 499.705 596.471 495.659 604.208 490.919C611.588 485.588 618.123 479.175 623.594 471.898ZM124.618 143.503L124.664 143.423C131.804 137.893 140.029 133.928 148.803 131.787C153.332 130.649 157.924 129.777 162.555 129.175H176.259C187.239 128.835 197.289 129.901 204.895 130.708H204.895H204.896C209.137 131.158 212.618 131.528 215.078 131.528C219.659 131.476 224.181 130.485 228.365 128.618C232.549 126.751 236.306 124.046 239.404 120.67C244.808 113.237 249.07 105.037 252.05 96.3438C252.689 94.4801 253.321 92.6069 253.951 90.7398L253.952 90.7396L253.952 90.7395C259.691 73.739 265.263 57.2371 274.176 52.902C268.103 53.4422 260.259 49.2129 250.863 44.147C243.481 40.1662 235.14 35.669 225.947 32.5633C220.615 30.7093 215.143 29.2853 209.584 28.305C204.023 27.4825 198.371 27.4825 192.81 28.305C186.907 29.3986 181.234 31.4911 176.035 34.4925C170.264 38.2844 165.309 43.1917 161.461 48.926C158.048 54.4194 155.15 60.2158 152.803 66.2416C151.986 68.7321 151.098 71.4317 150.171 74.2515L150.17 74.2567C148.282 79.9993 146.231 86.2399 144.275 92.2267C141.357 101.155 138.358 110.507 135.476 119.717C132.615 127.937 128.995 135.873 124.664 143.423L124.606 143.467L124.618 143.503ZM35.8174 309.189C38.7228 317.229 40.9769 325.49 42.5578 333.892C43.605 329.781 45.0305 325.764 46.8161 321.917C48.9995 317.819 51.4803 313.888 54.2387 310.153C59.5016 302.754 65.697 296.064 72.6718 290.25C80.631 283.639 88.2081 278.47 94.209 274.377C98.3632 271.543 101.762 269.225 104.009 267.3C107.739 264.076 110.698 260.056 112.667 255.536C114.519 251.765 115.549 247.643 115.69 243.444C115.139 234.018 113.098 224.74 109.644 215.953C108.057 211.11 106.259 206.339 104.513 201.706C102.79 197.135 101.118 192.698 99.7508 188.462C97.0879 181.85 96.7478 174.53 98.7862 167.7C92.7721 171.851 85.8263 174.453 78.5651 175.276C68.4575 177.218 58.4914 179.836 48.7335 183.11C36.9695 186.222 26.6657 193.353 19.6096 203.267C12.5534 213.18 9.19006 225.251 10.1029 237.386C13.2061 252.662 18.0981 267.519 24.6776 281.651C26.3842 286.333 28.3384 290.891 30.2435 295.334C32.2778 300.079 34.2562 304.694 35.8174 309.189Z" fill="white"/>
</svg>
