<svg width="186" height="344" viewBox="0 0 186 344" fill="none" xmlns="http://www.w3.org/2000/svg">
<path opacity="0.05" fill-rule="evenodd" clip-rule="evenodd" d="M5.65503 19.4725C2.10643 21.6317 -1.6868 23.3602 -5.64447 24.6217C3.15479 25.4957 11.4895 28.9894 18.2819 34.6511C21.9393 37.6979 24.9267 40.8896 27.3295 43.4569C29.2493 45.5079 30.7959 47.1603 32.0129 48.0217C33.7449 49.4334 35.7474 50.4759 37.8973 51.0849C40.0471 51.694 42.2988 51.8567 44.5139 51.5632C48.8237 50.4948 52.9475 48.782 56.746 46.4827C57.9113 45.7948 59.0715 45.0943 60.2195 44.4013L60.2195 44.4012C67.4353 40.0447 74.1646 35.982 78.607 37.1913C76.0697 34.6844 74.2469 31.5462 73.3262 28.1002C71.5207 23.5115 69.4185 19.0452 67.0328 14.7296C65.6502 12.3491 64.0387 10.1091 62.2212 8.04144C60.2422 6.04152 57.9905 4.33113 55.5331 2.96095C52.9917 1.54332 50.236 0.55002 47.3746 0.0202199C44.0292 -0.112634 40.6901 0.410195 37.5454 1.55925C34.5233 2.49286 31.6099 3.74724 28.8548 5.30095C24.9755 7.33197 21.204 9.56245 17.5553 11.9834L11.6052 15.6622C11.3214 15.8513 11.0392 16.0402 10.758 16.2285L10.7577 16.2287L10.7573 16.2289C9.04863 17.3727 7.37924 18.4901 5.65503 19.4725ZM92.567 47.6214C100.942 50.424 109.632 52.1748 118.439 52.8335C126.112 53.3854 133.683 54.9139 140.969 57.3819C146.288 59.9648 150.536 64.3265 152.978 69.7117C155.42 75.0969 155.901 81.1664 154.34 86.8693C153.932 89.4173 153.374 91.9391 152.669 94.4214C152.564 94.7357 152.461 95.0489 152.358 95.3601L152.149 95.9979L152.148 95.9986C151.542 97.8409 150.965 99.597 150.38 101.11C148.818 104.349 148.222 107.97 148.664 111.539C145.344 107.467 135.938 106.204 126.793 104.976L125.865 104.851C121.416 104.286 117.11 102.903 113.164 100.772C111.223 99.6512 109.559 98.1073 108.297 96.255C107.035 94.4027 106.207 92.2897 105.875 90.0732C105.427 88.7849 105.354 86.7007 105.264 84.1193V84.119C105.138 80.5332 104.979 75.9882 103.735 71.2846C102.486 62.4503 98.593 54.2009 92.567 47.6214ZM159.952 138.813C157.078 135.773 154.669 132.326 152.8 128.583H152.777C152.953 133 152.457 137.417 151.307 141.685C149.919 145.88 148.132 149.932 145.969 153.785C143.868 157.878 141.217 161.401 139.083 164.236C137.416 166.45 136.066 168.245 135.539 169.565C134.331 171.465 133.587 173.623 133.367 175.864C133.146 178.105 133.455 180.366 134.269 182.466C135.954 186.643 138.429 190.457 141.558 193.697C142.915 195.378 144.274 196.926 145.577 198.411L145.578 198.412L145.58 198.413C147.385 200.469 149.082 202.403 150.517 204.396C152.826 206.958 154.255 210.192 154.596 213.624C156.526 210.731 159.208 208.418 162.355 206.936C163.972 206.019 165.63 204.976 167.332 203.905C167.743 203.646 168.157 203.386 168.574 203.126C170.715 201.689 172.768 200.126 174.724 198.446C179.626 195.058 183.178 190.051 184.755 184.304C186.331 178.558 185.833 172.44 183.346 167.024C181.824 164.248 180.032 161.629 177.996 159.203L174.055 154.323L169.243 149.243C167.535 147.29 165.899 145.47 164.298 143.688C162.83 142.055 161.391 140.454 159.952 138.813ZM-106.865 258.616L-106.87 258.613C-107.793 256.739 -108.593 254.805 -109.263 252.826C-109.721 250.622 -110.012 248.386 -110.132 246.138C-110.545 241.672 -110.319 237.17 -109.463 232.767C-108.639 228.425 -107.724 224.815 -106.923 221.737C-106.108 219.305 -105.46 216.82 -104.983 214.299C-104.576 211.932 -104.737 209.503 -105.452 207.21C-105.873 205.209 -106.792 203.345 -108.124 201.792C-111.195 198.536 -114.759 195.782 -118.685 193.634C-119.368 193.276 -120.06 192.916 -120.756 192.554L-120.757 192.554L-120.769 192.547L-120.771 192.546L-120.773 192.545C-124.232 190.746 -127.796 188.891 -130.855 186.946C-133.887 185.369 -136.259 182.762 -137.543 179.594C-137.852 182.686 -140.597 186.16 -143.916 190.362L-143.916 190.362C-146.364 193.462 -149.125 196.957 -151.451 200.986C-154.329 205.681 -155.899 211.059 -156 216.565C-156.017 219.692 -155.392 222.789 -154.161 225.664C-152.931 228.539 -151.122 231.13 -148.848 233.277C-142.93 238.053 -136.439 242.073 -129.527 245.245C-121.456 248.757 -113.847 253.247 -106.87 258.613L-106.854 258.645L-106.865 258.616ZM-22.6254 314.307C-26.8067 314.14 -30.9913 314.544 -35.0634 315.508C-39.4745 316.178 -44.1545 317.225 -48.7944 318.369C-56.1651 320.277 -63.7176 321.397 -71.3248 321.71C-77.5706 321.138 -83.3602 318.196 -87.5046 313.489C-90.8771 309.141 -93.1694 304.054 -94.1927 298.648C-94.8728 294.157 -95.0542 289.888 -95.2154 286.093C-95.4503 280.565 -95.6425 276.042 -97.2708 273.308C-94.2397 275.791 -87.7023 274.584 -80.7851 273.307L-80.7847 273.307C-78.3928 272.865 -75.9554 272.415 -73.6019 272.107C-64.4421 270.905 -55.6199 269.767 -49.7327 278.795C-48.9794 280.116 -48.0762 282.08 -46.955 284.519C-45.5215 287.637 -43.7315 291.53 -41.4426 295.844C-39.1021 299.548 -36.439 303.039 -33.4843 306.274C-30.4378 309.65 -26.7454 312.382 -22.6254 314.307ZM68.7661 311.498C71.3465 308.195 74.3099 305.211 77.594 302.607C68.9544 304.581 59.9222 303.931 51.6538 300.742C47.1757 298.927 43.3533 297.133 40.2767 295.69C37.7953 294.525 35.7991 293.589 34.3355 293.052C32.2367 292.263 29.9934 291.933 27.7563 292.083C25.5191 292.233 23.34 292.86 21.3654 293.922C17.5123 296.289 14.1705 299.401 11.5362 303.076C10.1658 304.627 8.79863 306.297 7.44235 307.954L7.44162 307.954C2.7791 313.65 -1.75436 319.187 -5.84497 319.187C-2.73787 320.015 0.276138 323.389 3.93359 327.482C6.49223 330.346 9.36577 333.562 12.8064 336.505C17.0041 339.999 21.955 342.47 27.2697 343.726C33.4947 344.663 39.8421 343.179 45.0057 339.578C50.6529 334.472 55.7411 328.779 60.1842 322.597C63.0448 318.718 65.9055 314.839 68.7661 311.498ZM146.919 229.335C145.891 233.395 145.505 237.592 145.775 241.773V241.773C145.775 246.322 145.775 250.927 146.244 255.744C146.474 260.198 146.474 264.661 146.244 269.115C146.33 272.313 146.129 275.512 145.643 278.675C144.011 284.729 140.14 289.938 134.813 293.247C129.909 295.746 124.475 297.03 118.971 296.989C113.927 296.927 108.897 296.459 103.93 295.587C100.526 294.752 96.9716 294.752 93.5684 295.587C96.657 292.498 96.5607 284.853 96.4619 277.013C96.441 275.355 96.42 273.689 96.429 272.055C96.1032 267.521 96.7188 262.969 98.2369 258.685C98.993 256.586 100.227 254.692 101.842 253.153C103.456 251.614 105.407 250.471 107.54 249.817C108.895 249.087 111.278 248.509 114.243 247.788C117.535 246.989 121.544 246.015 125.659 244.467C129.768 242.859 133.728 240.891 137.491 238.586C141.08 235.993 144.258 232.874 146.919 229.335ZM-95.7663 69.6138L-95.7439 69.5749C-92.2712 66.8853 -88.2709 64.9569 -84.0034 63.9154C-81.8006 63.3623 -79.5674 62.9382 -77.3152 62.6453H-70.6499C-65.3093 62.48 -60.4214 62.9986 -56.722 63.391C-54.6592 63.6099 -52.9659 63.7895 -51.7697 63.7895C-49.5415 63.7642 -47.342 63.2826 -45.3071 62.3743C-43.2722 61.4661 -41.445 60.1505 -39.9381 58.5088C-37.31 54.8934 -35.237 50.9055 -33.7878 46.6772C-33.4772 45.7717 -33.17 44.8615 -32.8637 43.9543L-32.8627 43.9515L-32.8627 43.9514C-30.0711 35.683 -27.3615 27.657 -23.0261 25.5486C-25.9799 25.8113 -29.795 23.7543 -34.3647 21.2904C-37.9555 19.3543 -42.0122 17.167 -46.4833 15.6565C-49.0765 14.7548 -51.7378 14.0622 -54.4416 13.5854C-57.1464 13.1853 -59.8953 13.1853 -62.6001 13.5854C-65.4709 14.1173 -68.23 15.135 -70.7586 16.5948C-73.5657 18.439 -75.9758 20.8258 -77.8473 23.6148C-79.5069 26.2866 -80.9165 29.1057 -82.0581 32.0365C-82.4554 33.2473 -82.8868 34.5597 -83.3374 35.9305L-83.3391 35.9354C-84.2571 38.7283 -85.2547 41.7633 -86.206 44.6748C-87.6249 49.0172 -89.0838 53.5656 -90.4856 58.0454C-91.8771 62.0433 -93.6375 65.9031 -95.7439 69.5749L-95.772 69.5966L-95.7663 69.6138ZM-138.956 150.198C-137.543 154.108 -136.447 158.126 -135.678 162.213C-135.168 160.213 -134.475 158.26 -133.607 156.388C-132.545 154.396 -131.338 152.483 -129.996 150.667C-127.437 147.068 -124.423 143.814 -121.031 140.987C-117.16 137.771 -113.475 135.258 -110.556 133.267C-108.536 131.888 -106.883 130.761 -105.79 129.824C-103.976 128.257 -102.537 126.301 -101.579 124.103C-100.678 122.269 -100.177 120.264 -100.109 118.222C-100.377 113.638 -101.369 109.125 -103.049 104.851C-103.821 102.496 -104.696 100.175 -105.545 97.922C-106.383 95.6984 -107.196 93.5408 -107.861 91.4805C-109.156 88.2647 -109.321 84.7045 -108.33 81.3825C-111.255 83.4013 -114.633 84.6669 -118.165 85.067C-123.081 86.0118 -127.928 87.2848 -132.674 88.8773C-138.396 90.3907 -143.407 93.8591 -146.839 98.6809C-150.271 103.503 -151.907 109.374 -151.463 115.275C-149.953 122.705 -147.574 129.931 -144.374 136.804C-143.544 139.081 -142.594 141.298 -141.667 143.46C-140.677 145.767 -139.715 148.012 -138.956 150.198Z" fill="#4762B3"/>
</svg>
