<svg width="56" height="56" viewBox="0 0 56 56" fill="none" xmlns="http://www.w3.org/2000/svg">
<path d="M49.9478 10.6133C46.9378 6.81373 42.9929 3.86063 38.4992 2.04299C34.0055 0.225362 29.1169 -0.394533 24.3118 0.243969C19.5067 0.882472 14.9496 2.7575 11.0865 5.68557C7.22342 8.61364 4.18666 12.4945 2.27338 16.9483C0.360096 21.4021 -0.364165 26.2763 0.171466 31.094C0.707098 35.9117 2.48427 40.5078 5.32909 44.4326C8.17391 48.3574 11.9889 51.4764 16.4008 53.4845C20.8127 55.4925 25.6703 56.3208 30.4984 55.8883L30.2975 53.6465C25.8576 54.0443 21.3904 53.2825 17.3332 51.4359C13.276 49.5893 9.76763 46.721 7.1515 43.1116C4.53536 39.5023 2.90104 35.2757 2.40847 30.8453C1.91589 26.4149 2.58193 21.9324 4.34142 17.8367C6.1009 13.7409 8.89355 10.172 12.4461 7.47932C15.9987 4.78662 20.1894 3.06232 24.6083 2.47514C29.0272 1.88797 33.5228 2.45803 37.6552 4.12955C41.7877 5.80107 45.4155 8.51679 48.1835 12.011L49.9478 10.6133Z" fill="#C5B2A3"/>
<path d="M24.57 21.9301L18.5 28.0001L24.57 34.0701" stroke="#C5B2A3" stroke-width="1.5" stroke-miterlimit="10" stroke-linecap="round" stroke-linejoin="round"/>
<path d="M35.5 28H18.67" stroke="#C5B2A3" stroke-width="1.5" stroke-miterlimit="10" stroke-linecap="round" stroke-linejoin="round"/>
</svg>
